<?xml version="1.0" encoding="utf-8"?>
<!-- Generator: Adobe Illustrator 17.0.0, SVG Export Plug-In . SVG Version: 6.00 Build 0)  -->
<!DOCTYPE svg PUBLIC "-//W3C//DTD SVG 1.1//EN" "http://www.w3.org/Graphics/SVG/1.1/DTD/svg11.dtd">
<svg version="1.1" id="Layer_1" xmlns="http://www.w3.org/2000/svg" xmlns:xlink="http://www.w3.org/1999/xlink" x="0px" y="0px"
	 width="200px" height="200px" viewBox="0 0 200 200" enable-background="new 0 0 200 200" xml:space="preserve">
<path fill="#FFFFFF" d="M180.13,44.525c-0.396,0-0.795-0.038-1.196-0.117c-1.071-0.211-2.11-0.617-3.179-1.244
	c-0.601-0.353-1.185-0.738-1.756-1.141c-1.179-0.828-5.853-4.135-5.853-4.135c-0.223-0.156-0.454-0.304-0.687-0.451l-0.363-0.231
	c-0.571-0.37-1.172-0.777-1.668-1.319l-0.19-0.205l-0.07-0.458c-0.207-1.313-0.022-1.872,1.489-2.586
	c2.395-1.135,4.622-1.687,6.816-1.687l1.007,0.011c0.214,0,0.903-0.015,0.903-0.015c0.841,0,1.657,0.145,2.432,0.43
	c1.2,0.443,2.291,0.846,3.278,1.57c1.134,0.833,2.095,1.853,2.857,3.035c0.414,0.643,0.863,1.427,1.066,2.374
	c0.234,1.081,0.238,2.024,0.016,2.883c-0.31,1.201-1.161,2.174-2.397,2.734C181.829,44.34,180.989,44.525,180.13,44.525
	L180.13,44.525z"/>
<path fill="#FFFFFF" d="M166.099,35.267c0.425,0.462,0.956,0.822,1.494,1.17c0.361,0.233,0.727,0.454,1.079,0.701
	c1.952,1.375,3.897,2.762,5.853,4.133c0.551,0.386,1.113,0.758,1.694,1.099c0.903,0.529,1.863,0.932,2.894,1.135
	c1.082,0.214,2.145,0.088,3.141-0.366c0.932-0.423,1.632-1.135,1.89-2.132c0.207-0.798,0.154-1.637-0.024-2.46
	c-0.165-0.764-0.527-1.427-0.943-2.071c-0.703-1.093-1.579-2.022-2.626-2.791c-0.927-0.679-1.994-1.059-3.055-1.45
	c-0.756-0.28-1.537-0.397-2.342-0.37c-0.489,0.016-0.98,0.011-1.471,0.002c-2.35-0.042-4.544,0.606-6.635,1.597
	C165.828,34.044,165.936,34.19,166.099,35.267z"/>
<path d="M105.026,200.683c-0.945,0-1.888-0.011-2.833-0.024c-1.93-0.029-3.959-0.15-6.58-0.392c-3.513-0.326-6.998-0.842-10.36-1.54
	c-0.943-0.196-1.881-0.414-2.819-0.63l-1.405-0.324l-1.242-0.267c-1.145-0.238-2.311-0.579-3.564-1.044l-7.41-2.723
	c-0.377-0.137-0.751-0.291-1.106-0.472l-1.797-0.903c-2.795-1.407-5.591-2.809-8.371-4.243c-0.639-0.33-1.253-0.707-1.866-1.086
	c-0.414-0.256-0.826-0.511-1.249-0.749c-1.229-0.696-2.498-1.542-3.994-2.667l-1.744-1.304c-1.214-0.905-2.428-1.809-3.626-2.732
	c-0.687-0.531-1.331-1.117-1.972-1.705l-0.233-0.211c-1.43-1.302-2.855-2.608-4.269-3.93c-1.249-1.167-2.388-2.449-3.489-3.687
	c-0.458-0.515-0.916-1.031-1.381-1.538c-1.809-1.971-3.403-4.068-5.011-6.221c-2.439-3.269-4.45-6.78-6.463-10.391
	c-0.242-0.432-0.476-0.872-0.712-1.308c-0.269-0.505-0.54-1.011-0.824-1.507c-0.866-1.527-1.668-3.258-2.524-5.447
	c-0.932-2.383-1.824-4.778-2.714-7.177c-0.559-1.5-0.905-2.91-1.238-4.274l-0.07-0.284c-0.24-0.971-0.491-1.939-0.742-2.908
	c-0.714-2.751-1.253-5.448-1.624-8.122c-0.388-2.791-0.639-5.133-0.788-7.368c-0.106-1.597-0.156-2.998-0.152-4.284v-1.679
	c-0.002-1.591-0.004-3.185,0.04-4.774c0.035-1.251,0.143-2.502,0.251-3.749l0.06-0.698c0.172-2.069,0.458-4.242,0.848-6.452
	c0.352-1.996,0.738-3.989,1.148-5.972c0.125-0.601,0.288-1.192,0.452-1.786c0.101-0.363,0.201-0.725,0.291-1.092
	c0.571-2.298,1.287-4.518,1.976-6.575c0.174-0.516,0.372-1.024,0.57-1.531l0.251-0.648c1.555-4.099,2.557-6.309,4.655-10.292
	c0.985-1.868,2.004-3.8,3.168-5.666c0.918-1.471,1.996-3.176,3.187-4.8c0.621-0.848,1.216-1.718,1.811-2.586
	c0.353-0.516,0.709-1.033,1.068-1.546c0.286-0.41,0.588-0.819,0.932-1.183c1.831-1.939,3.672-3.87,5.52-5.793
	c0.912-0.949,4.544-4.687,4.544-4.687c1.337-1.385,2.619-2.511,3.916-3.439c3.34-2.394,6.707-4.747,10.075-7.097
	c0.361-0.253,0.756-0.458,1.15-0.659c0.178-0.092,0.355-0.183,0.531-0.28l4.892-2.745c0.152-0.09,0.306-0.178,0.465-0.251
	l1.309-0.601c2.383-1.097,4.846-2.231,7.428-3.047c1.599-0.505,3.183-1.055,4.767-1.602l2.348-0.808
	c1.364-0.462,2.824-0.866,4.599-1.271c2.289-0.52,4.313-0.918,6.183-1.216c0.203-0.033,0.407-0.049,0.61-0.068l0.494-0.053
	c-0.027-0.7-0.059-1.399-0.093-2.101c-0.04-0.841,0.139-1.654,0.549-2.487c0.381-0.773,0.76-1.551,1.075-2.353
	c0.423-1.07,1.126-1.958,2.216-2.795c1.769-1.357,3.813-2.441,6.077-3.221c1.399-0.483,2.868-0.857,4.496-1.141
	c1.767-0.308,3.591-0.463,5.421-0.463l2.811,0.011c0.599,0,1.198-0.004,1.797-0.016L115.259,0c1.698,0,3.368,0.167,4.921,0.346
	c1.685,0.194,3.368,0.414,5.042,0.679c1.463,0.231,2.917,0.524,4.37,0.82c1.088,0.222,1.91,0.423,2.668,0.656
	c1.135,0.346,2.256,0.736,3.381,1.126l0.394,0.137c1.104,0.381,2.201,0.778,3.3,1.181c2.328,0.852,4.296,1.824,6.023,2.976
	c1.037,0.69,2.09,1.363,3.146,2.024c0.881,0.551,1.738,1.198,2.542,1.923l0.795,0.709c1.159,1.029,2.357,2.093,3.392,3.335
	c0.487,0.584,0.943,1.198,1.374,1.824c0.535,0.782,1.055,1.571,1.575,2.361l0.623,0.94c1.06,1.597,1.894,3.304,2.478,5.073
	l0.491,1.511c0.278,0.863,0.559,1.723,0.85,2.582c0.295,0.877,0.419,1.754,0.54,2.602l0.082,0.518c0.046,0.249,0.09,0.5,0.097,0.751
	c0.013,0.441,0.223,0.766,0.782,1.201c0.297,0.229,0.586,0.467,0.877,0.705c0.366,0.3,0.734,0.603,1.113,0.885
	c2.053,1.529,3.833,3.357,5.551,5.122l1.106,1.13c1.049,1.064,2.057,2.17,3.06,3.278l0.841,0.923
	c0.353,0.386,0.681,0.802,0.987,1.229c0.293,0.405,0.579,0.819,0.868,1.233c0.392,0.564,0.782,1.126,1.192,1.676
	c0.815,1.09,1.438,2.273,2.04,3.417l0.855,1.597c0.597,1.099,1.194,2.198,1.734,3.324c0.544,1.128,1.016,2.275,1.405,3.406
	c0.54,1.59,0.91,2.833,1.2,4.031c0.284,1.185,0.518,2.45,0.72,3.87c0.295,2.09,0.399,4.304,0.311,6.578
	c-0.075,1.928-0.288,3.815-0.63,5.606l-0.101,0.531c-0.062,0.342-0.125,0.683-0.196,1.022l-0.068,0.319
	c-0.099,0.473-0.198,0.947-0.357,1.397c-1.315,3.723-2.85,6.829-4.694,9.494c-0.87,1.258-1.927,2.482-3.234,3.745
	c-1.253,1.211-2.727,2.344-4.509,3.469l-1.886,1.194c-1.26,0.798-2.522,1.597-3.787,2.388c-0.386,0.24-0.828,0.456-1.315,0.641
	c-3.32,1.255-6.782,2.243-10.285,2.939c-1.56,0.31-2.859,0.456-4.086,0.456l-0.5-0.009c-0.396-0.013-0.793-0.018-1.189-0.018
	c-0.412,0-0.822,0.005-1.234,0.018l-0.482,0.005c-1.566,0-3.106-0.222-4.538-0.46l-0.5-0.082c-0.449-0.073-0.897-0.147-1.342-0.238
	c-0.678-0.143-1.352-0.3-2.02-0.487c-1.132-0.317-2.262-0.639-3.381-1c-1.646-0.533-3.102-1.198-4.452-2.031
	c-2.057-1.275-3.688-3.066-4.848-5.326c-0.465-0.91-0.397-1.808-0.339-2.599l0.033-0.421l0.348-0.344
	c0.89-0.652,1.634-1.148,2.331-1.564c1.656-0.987,3.104-2.258,4.426-3.89c0.584-0.722,1.038-1.445,1.392-2.211l0.309-0.663
	c0.242-0.516,0.485-1.033,0.703-1.56c0.106-0.258,0.156-0.544,0.209-0.826c0.26-1.287,0.353-2.443,0.311-3.593l-0.002-0.192
	c-0.112-0.551-0.196-0.956-0.284-1.364c-0.095-0.452-0.19-0.905-0.324-1.348c-0.421-1.392-1.086-2.678-2.033-3.93
	c-0.716-0.947-1.432-1.859-2.3-2.59c-0.297-0.251-0.603-0.493-0.908-0.733c-0.421-0.333-0.842-0.667-1.245-1.022
	c-1.128-0.994-2.416-1.756-3.639-2.452c-1.555-0.883-3.32-1.632-5.564-2.355c-0.683-0.222-1.405-0.355-2.167-0.496l-0.87-0.167
	c-0.584-0.119-1.172-0.22-1.762-0.306c-0.286-0.042-0.582-0.059-0.877-0.06l-2.903,0.002c-0.568,0-1.712-0.009-1.718-0.009
	c-1.181,0-2.276,0.128-3.613,0.401c-1.635,0.335-3.132,0.74-4.579,1.24c-4.124,1.425-7.522,3.492-10.39,6.322
	c-0.879,0.868-1.778,1.716-2.679,2.562c-0.575,0.542-1.15,1.082-1.72,1.63c-1.394,1.337-2.656,2.786-3.754,4.3
	c-1.714,2.368-3.201,4.503-4.546,6.527c-1.537,2.311-2.815,4.769-3.8,7.307c-0.617,1.588-1.233,3.177-1.804,4.785
	c-0.328,0.925-0.582,1.879-0.837,2.828l-0.185,0.683c-0.267,0.989-0.522,1.923-0.681,2.888l-0.266,1.548
	c-0.256,1.461-0.522,2.974-0.657,4.465c-0.148,1.599-0.315,3.71-0.284,5.862l0.002,0.19c0.022,1.48,0.044,2.963,0.143,4.441
	c0.066,0.98,0.192,1.958,0.319,2.938l0.13,1.029c0.275,2.264,0.773,4.547,1.256,6.756l0.198,0.912
	c0.192,0.886,0.462,1.76,0.729,2.634c0.141,0.456,0.28,0.912,0.41,1.37c0.441,1.549,1.093,3.079,1.723,4.555
	c0.238,0.559,0.476,1.115,0.705,1.678c0.081,0.198,0.19,0.381,0.3,0.568l0.742,1.33c0.425,0.764,0.852,1.529,1.251,2.306
	c0.789,1.537,1.747,3.06,2.85,4.529c0.282,0.375,0.557,0.758,0.831,1.143c0.725,1.013,1.41,1.971,2.247,2.804
	c0.802,1.165,1.692,2.016,2.637,2.917c0.474,0.452,0.95,0.907,1.399,1.385c0.304,0.322,0.621,0.632,0.94,0.941
	c0.342,0.333,0.683,0.665,1.011,1.015c1.438,1.529,3.06,2.817,4.6,3.978l0.853,0.634c0.434,0.321,0.868,0.639,1.293,0.969
	c1.046,0.813,2.189,1.483,3.364,2.154c1.282,0.729,2.557,1.476,3.826,2.223c1.196,0.705,2.476,1.211,3.831,1.747l2.022,0.809
	c1.87,0.775,3.939,1.385,6.329,1.868c1.266,0.258,2.646,0.438,4.344,0.571c0.342,0.026,0.681,0.086,1.02,0.148l0.678,0.112
	c0.196,0.031,0.396,0.062,0.592,0.064l8.014,0.004c0.894-0.238,1.613-0.293,2.309-0.348l0.485-0.04
	c1.606-0.145,3.311-0.39,5.373-0.767c0.427-0.079,0.859-0.15,1.289-0.22c0.5-0.084,1.004-0.167,1.5-0.264
	c0.483-0.093,0.958-0.218,1.436-0.344l1.141-0.293c0.861-0.218,1.72-0.434,2.569-0.694c1.07-0.326,2.128-0.683,3.187-1.04
	l1.15-0.388c0.864-0.288,1.727-0.581,2.586-0.885c0.154-0.053,0.302-0.128,0.449-0.2l0.317-0.15l1.227-0.538
	c0.956-0.419,1.914-0.835,2.852-1.291c0.811-0.396,1.604-0.833,2.395-1.273l2.104-1.148l0.432-0.223
	c0.571-0.293,1.108-0.57,1.581-0.927c0.368-0.28,0.795-0.535,1.335-0.798c0.657-0.321,1.304-0.749,2.031-1.35
	c1.172-0.967,4.694-3.848,4.694-3.848c0.196-0.168,0.297-0.251,0.403-0.328c0.297-0.209,0.628-0.319,0.96-0.319
	c0.288,0,0.564,0.079,0.82,0.233c0.625,0.383,0.932,1.016,0.824,1.696c-0.044,0.291-0.145,0.579-0.289,0.83
	c-0.148,0.256-0.33,0.496-0.522,0.725l-1.308,1.538c-0.813,0.954-1.626,1.906-2.419,2.873c-0.93,1.132-1.974,2.119-2.782,2.855
	c-0.462,0.419-0.921,0.844-1.353,1.291c-1.095,1.126-2.32,2.088-3.503,3.014l-1.178,0.93c-2.271,1.808-4.54,3.617-6.838,5.39
	c-0.822,0.635-1.736,1.238-2.716,1.789c-2.938,1.656-5.89,3.286-8.853,4.901c-2.022,1.101-3.897,1.95-5.727,2.601
	c-2.474,0.877-4.93,1.8-7.381,2.74c-1.597,0.615-3.278,1.097-4.996,1.434l-2.738,0.546c-2.062,0.414-4.124,0.826-6.192,1.203
	c-1.498,0.271-3.025,0.456-4.502,0.634l-0.462,0.055C111.366,200.544,108.608,200.683,105.026,200.683z M22.418,69.989
	c-1.714,3.639-3.21,7.716-4.566,12.426c-1.458,5.075-2.463,10.232-2.987,15.331c-0.278,2.696-0.44,5.414-0.478,8.08
	c-0.022,1.566,0.029,3.154,0.088,4.633c0.064,1.575,0.145,3.152,0.288,4.723c0.251,2.791,0.663,5.697,1.225,8.639
	c1.064,5.578,2.601,10.988,4.568,16.083c3.809,9.869,9.399,18.972,16.613,27.057c3.077,3.449,6.498,6.73,10.17,9.754
	c7.273,5.991,15.387,10.77,24.118,14.212c5.066,1.994,10.375,3.549,16.23,4.752c3.985,0.819,8.102,1.291,12.237,1.401
	c1.465,0.038,2.93,0.07,4.394,0.07c2.057,0,3.862-0.062,5.525-0.19l1.46-0.104c1.304-0.092,2.61-0.181,3.908-0.33
	c3.203-0.363,6.509-0.956,9.827-1.764c6.033-1.467,11.814-3.454,17.191-5.906c7.201-3.286,14.005-7.584,20.27-12.802
	c-3.932,1.925-8.177,3.568-12.889,4.998c-6.52,1.98-13.301,3.042-20.155,3.161l-0.925,0.007c-1.515,0-3.031-0.057-4.547-0.117
	c-2.921-0.117-5.884-0.537-8.807-1.247c-6.679-1.63-13.109-4.621-19.113-8.893c-4.492-3.196-8.531-6.838-12.007-10.829
	c-1.875-2.152-4.047-4.745-5.936-7.644c-4.553-6.994-7.558-14.955-9.188-24.332c-0.416-2.394-0.705-4.912-0.861-7.49
	c-0.176-2.862-0.154-5.064,0.068-7.131l0.579-5.295c0.258-2.436,0.685-4.82,1.267-7.089c0.987-3.85,2.417-7.611,4.372-11.499
	c2.331-4.637,5.086-8.926,8.185-12.745c2.304-2.842,4.769-5.426,7.326-7.685c3.262-2.879,6.811-5.163,10.553-6.791
	c3.46-1.505,7.192-2.363,11.096-2.547c0.586-0.027,1.176-0.038,1.762-0.038c0.877,0,1.756,0.026,2.634,0.062
	c1.361,0.057,2.725,0.218,4.058,0.48c5.146,1.013,9.901,3.264,14.129,6.688c2.461,1.993,4.412,4.368,5.8,7.062
	c2.339,4.533,2.482,9.181,0.425,13.812c-0.89,2.007-2.254,3.866-4.055,5.525c-0.515,0.474-1.051,0.929-1.586,1.383
	c-0.119,0.101-0.24,0.201-0.357,0.304c0.095-0.004,0.19-0.009,0.288-0.02c0.905-0.09,1.811-0.161,2.718-0.233l0.593-0.048
	c3.329-0.266,6.322-1.469,8.89-3.579c2.474-2.031,4.395-4.617,5.71-7.686c1.146-2.67,1.808-5.723,2.026-9.342
	c0.115-1.917,0.004-3.879-0.333-5.833c-0.361-2.113-0.903-3.972-1.656-5.681c-0.846-1.914-2.004-3.43-3.54-4.63
	c-1.727-1.348-3.209-2.368-4.661-3.212c-3.52-2.04-6.972-3.368-10.556-4.055c-0.985-0.19-1.947-0.286-2.861-0.286
	c-1.103,0-2.176,0.141-3.196,0.416c-3.276,0.886-5.963,1.765-8.454,2.764c-6.624,2.65-12.701,4.042-18.574,4.249
	c-0.493,0.018-0.983,0.027-1.474,0.027c-1.82,0-3.688-0.123-5.549-0.363c-2.723-0.353-5.52-1.068-8.549-2.183
	c-1.416-0.522-2.842-1.015-4.271-1.505c0,0-1.17-0.403-1.231-0.421c-0.062,0.081-0.13,0.178-0.165,0.227l-0.299,0.452l-0.341,0.489
	c-0.277,0.399-0.555,0.8-0.846,1.189c-1.927,2.568-4.372,4.983-7.478,7.381c-6.181,4.773-12.944,8.397-20.101,10.774
	c-4.443,1.476-8.142,2.322-11.637,2.667c-0.958,0.093-1.908,0.143-2.822,0.143c-1.835,0-3.628-0.194-5.326-0.575
	c-1.612-0.363-2.982-0.945-4.188-1.784c-2.091-1.45-3.39-3.471-3.859-6C22.499,71.013,22.44,70.505,22.418,69.989z M133.116,101.709
	c0.341,0.379,0.685,0.753,1.049,1.106c0.634,0.619,1.385,1.115,2.234,1.478c3.998,1.705,8.113,2.679,12.232,2.899
	c0.709,0.038,1.414,0.057,2.121,0.057c2.091,0,4.143-0.172,6.097-0.513c6.824-1.183,12.908-4.011,18.087-8.406
	c2.689-2.282,4.817-5.051,6.326-8.23c2.967-6.241,3.806-12.957,2.496-19.962c-0.987-5.258-3.068-10.386-6.186-15.243
	c-2.185-3.405-4.914-6.749-8.584-10.52c-2.326-2.39-4.58-4.326-6.897-5.917c-0.863-0.593-1.507-1.337-1.921-2.212
	c-0.289-0.612-0.472-1.291-0.575-2.135c-0.599-4.853-2.405-9.366-5.361-13.411c-3.547-4.85-8.243-8.677-13.957-11.377
	c-2.634-1.244-5.61-2.297-9.362-3.315c-4.437-1.203-8.91-1.95-13.298-2.223c-1.612-0.101-3.196-0.15-4.71-0.15
	c-2.178,0-4.311,0.104-6.338,0.311c-2.273,0.231-4.434,0.758-6.423,1.562c-1.244,0.502-2.267,1.075-3.134,1.754
	c-2.615,2.049-3.573,4.562-2.93,7.677c0.086,0.412,0.147,0.722,0.167,1.031c0.057,0.841-0.363,1.489-1.15,1.776
	c-0.357,0.13-0.734,0.218-1.11,0.293c0,0-5.384,1.053-6.668,1.311c-8.108,1.634-15.986,4.494-23.411,8.503
	c-8.767,4.731-16.547,10.708-23.125,17.765c-2.753,2.954-4.976,5.692-6.8,8.371c-2.43,3.573-4.121,7.104-5.163,10.794
	c-0.606,2.146-0.797,4.143-0.581,6.102c0.119,1.082,0.527,1.983,1.247,2.754c0.963,1.031,2.212,1.731,3.82,2.137
	c1.311,0.333,2.775,0.494,4.476,0.494h0.214c2.146-0.016,4.397-0.308,7.08-0.918c7.498-1.7,14.679-4.8,21.341-9.216
	c2.617-1.734,4.657-3.275,6.421-4.844c2.729-2.428,4.789-4.939,6.3-7.681c0.088-0.159,0.183-0.32,0.288-0.473
	c0.17-0.249,0.63-0.919,1.476-0.919c0.306,0,0.615,0.084,1,0.275c0.137,0.068,0.271,0.147,0.407,0.229
	c0.081,0.048,0.161,0.099,0.245,0.141l0.229,0.119c0.211,0.112,0.419,0.225,0.643,0.302c2.46,0.844,4.921,1.683,7.39,2.504
	c3.295,1.093,6.842,1.646,10.543,1.646c1.425,0,2.908-0.081,4.41-0.242c3.408-0.366,6.791-1.154,10.051-2.342l3.901-1.428
	c1.864-0.685,3.727-1.37,5.595-2.046c2.408-0.872,4.903-1.313,7.408-1.313c1.258,0,2.546,0.112,3.826,0.331
	c2.286,0.392,4.6,1.086,6.879,2.062c2.982,1.276,5.97,3.013,9.135,5.306c2.26,1.635,4.011,3.804,5.208,6.448
	c1.628,3.604,2.443,7.609,2.423,11.908c-0.009,1.76-0.17,3.566-0.476,5.362c-0.764,4.478-2.434,8.45-4.965,11.807
	c-2.068,2.742-4.619,4.837-7.584,6.225c-2.417,1.134-5.122,1.809-8.038,2.013c-0.983,0.068-1.969,0.104-2.956,0.141L133.116,101.709
	z"/>
<path d="M91.31,15.378c0-0.328,0.007-0.538-0.002-0.747c-0.029-0.733-0.06-1.465-0.097-2.2c-0.037-0.722,0.136-1.388,0.456-2.035
	c0.394-0.797,0.78-1.597,1.106-2.423c0.397-1.007,1.082-1.762,1.921-2.405c1.765-1.355,3.718-2.359,5.818-3.082
	c1.419-0.491,2.873-0.844,4.355-1.103c1.754-0.306,3.518-0.452,5.296-0.451c1.531,0.002,3.064,0.026,4.595-0.005
	c1.782-0.037,3.549,0.13,5.313,0.335c1.672,0.194,3.342,0.41,5.005,0.674c1.45,0.229,2.892,0.52,4.329,0.813
	c0.868,0.178,1.738,0.375,2.584,0.635c1.258,0.385,2.498,0.822,3.742,1.253c1.099,0.381,2.192,0.777,3.286,1.176
	c2.046,0.749,4.011,1.665,5.831,2.877c1.046,0.696,2.102,1.372,3.168,2.038c0.859,0.537,1.661,1.148,2.414,1.828
	c1.41,1.271,2.875,2.485,4.097,3.95c0.469,0.562,0.907,1.154,1.32,1.756c0.745,1.086,1.461,2.19,2.19,3.287
	c1.004,1.513,1.802,3.128,2.37,4.853c0.451,1.366,0.879,2.74,1.341,4.101c0.297,0.877,0.408,1.787,0.54,2.696
	c0.044,0.302,0.123,0.604,0.132,0.907c0.024,0.853,0.509,1.408,1.137,1.897c0.676,0.526,1.319,1.093,2.005,1.604
	c2.421,1.802,4.445,4.029,6.553,6.161c1.333,1.35,2.593,2.773,3.875,4.174c0.33,0.361,0.634,0.747,0.919,1.145
	c0.698,0.969,1.355,1.969,2.071,2.923c0.98,1.308,1.674,2.776,2.445,4.203c0.712,1.32,1.445,2.632,2.095,3.983
	c0.516,1.073,0.976,2.181,1.361,3.308c0.443,1.298,0.853,2.61,1.178,3.95c0.3,1.253,0.524,2.513,0.703,3.784
	c0.3,2.126,0.386,4.271,0.304,6.415c-0.071,1.835-0.267,3.663-0.614,5.47c-0.097,0.511-0.183,1.024-0.293,1.533
	c-0.117,0.538-0.211,1.088-0.394,1.604c-1.156,3.275-2.599,6.412-4.582,9.278c-0.908,1.315-1.967,2.494-3.117,3.606
	c-1.331,1.286-2.804,2.37-4.361,3.353c-1.89,1.192-3.775,2.395-5.672,3.579c-0.361,0.225-0.755,0.41-1.152,0.56
	c-3.3,1.247-6.685,2.212-10.14,2.899c-1.436,0.286-2.899,0.478-4.379,0.429c-0.826-0.027-1.654-0.026-2.482-0.002
	c-1.632,0.049-3.236-0.174-4.839-0.441c-0.603-0.103-1.209-0.189-1.809-0.315c-0.657-0.137-1.313-0.289-1.958-0.473
	c-1.119-0.315-2.24-0.632-3.346-0.991c-1.489-0.482-2.916-1.112-4.251-1.939c-1.98-1.227-3.456-2.897-4.514-4.965
	c-0.363-0.707-0.291-1.419-0.233-2.205c0.72-0.526,1.472-1.049,2.26-1.518c1.811-1.079,3.346-2.467,4.67-4.099
	c0.601-0.742,1.113-1.537,1.511-2.405c0.346-0.751,0.711-1.494,1.026-2.256c0.15-0.363,0.214-0.762,0.293-1.15
	c0.242-1.205,0.344-2.423,0.299-3.652c-0.007-0.183,0.013-0.375-0.035-0.548c-0.233-0.855-0.355-1.733-0.614-2.588
	c-0.469-1.549-1.211-2.938-2.179-4.218c-0.74-0.978-1.498-1.943-2.441-2.738c-0.701-0.592-1.449-1.134-2.137-1.74
	c-1.156-1.02-2.456-1.802-3.793-2.562c-1.824-1.037-3.756-1.791-5.736-2.43c-1.013-0.328-2.086-0.474-3.134-0.689
	c-0.599-0.123-1.203-0.225-1.809-0.315c-0.331-0.049-0.67-0.068-1.005-0.07c-1.531-0.007-3.064,0.013-4.595-0.007
	c-1.295-0.018-2.569,0.163-3.826,0.419c-1.588,0.326-3.156,0.74-4.692,1.271c-4.055,1.403-7.668,3.511-10.734,6.536
	c-1.438,1.419-2.932,2.784-4.39,4.183c-1.416,1.361-2.707,2.83-3.861,4.423c-1.562,2.159-3.091,4.339-4.568,6.558
	c-1.566,2.355-2.868,4.848-3.892,7.483c-0.621,1.597-1.24,3.196-1.811,4.809c-0.335,0.949-0.599,1.927-0.857,2.899
	c-0.322,1.212-0.679,2.414-0.885,3.657c-0.335,2.022-0.744,4.029-0.934,6.078c-0.183,1.985-0.317,3.969-0.288,5.959
	c0.024,1.56,0.042,3.124,0.148,4.681c0.09,1.342,0.289,2.678,0.452,4.014c0.319,2.615,0.912,5.183,1.469,7.752
	c0.297,1.372,0.769,2.705,1.154,4.058c0.623,2.187,1.608,4.232,2.461,6.327c0.137,0.339,0.344,0.646,0.52,0.969
	c0.603,1.101,1.231,2.189,1.806,3.304c0.842,1.641,1.826,3.187,2.932,4.659c1.029,1.37,1.941,2.831,3.165,4.049
	c1.104,1.646,2.674,2.857,4.016,4.28c0.63,0.668,1.319,1.282,1.947,1.952c1.432,1.526,3.053,2.83,4.716,4.084
	c0.709,0.535,1.434,1.048,2.134,1.593c1.092,0.85,2.278,1.546,3.476,2.227c1.278,0.727,2.546,1.471,3.813,2.216
	c1.511,0.89,3.156,1.483,4.773,2.135c0.397,0.161,0.798,0.315,1.194,0.478c2.101,0.87,4.276,1.471,6.501,1.919
	c1.474,0.299,2.958,0.467,4.454,0.584c0.485,0.038,0.965,0.154,1.447,0.225c0.3,0.044,0.606,0.101,0.907,0.103
	c2.604,0.007,5.209,0.006,7.813,0.004c0.214,0,0.44,0.015,0.637-0.048c0.8-0.249,1.626-0.267,2.449-0.344
	c1.83-0.167,3.644-0.447,5.452-0.778c0.932-0.172,1.87-0.306,2.798-0.485c0.57-0.11,1.132-0.264,1.694-0.41
	c1.183-0.308,2.377-0.588,3.546-0.945c1.463-0.445,2.908-0.951,4.359-1.436c0.87-0.289,1.74-0.584,2.604-0.892
	c0.288-0.103,0.555-0.253,0.835-0.377c1.37-0.612,2.754-1.187,4.102-1.842c1.181-0.575,2.319-1.238,3.476-1.864
	c0.35-0.189,0.696-0.385,1.048-0.568c0.731-0.385,1.478-0.729,2.145-1.234c0.363-0.277,0.771-0.504,1.183-0.703
	c0.806-0.392,1.527-0.901,2.214-1.469c1.559-1.287,3.128-2.564,4.69-3.844c0.119-0.097,0.231-0.201,0.355-0.289
	c0.245-0.174,0.515-0.205,0.777-0.048c0.282,0.172,0.447,0.429,0.394,0.769c-0.027,0.176-0.088,0.357-0.178,0.511
	c-0.121,0.211-0.271,0.408-0.429,0.595c-1.245,1.474-2.513,2.93-3.736,4.421c-0.82,0.998-1.738,1.892-2.69,2.758
	c-0.476,0.432-0.947,0.872-1.396,1.331c-1.308,1.346-2.817,2.45-4.278,3.615c-2.372,1.89-4.743,3.782-7.142,5.633
	c-0.822,0.634-1.701,1.205-2.606,1.716c-2.934,1.654-5.882,3.282-8.842,4.892c-1.802,0.98-3.654,1.853-5.595,2.542
	c-2.482,0.879-4.945,1.806-7.403,2.749c-1.577,0.606-3.19,1.066-4.844,1.392c-2.972,0.584-5.939,1.203-8.919,1.745
	c-1.623,0.295-3.269,0.484-4.908,0.681c-3.872,0.467-7.761,0.48-11.651,0.423c-2.172-0.031-4.342-0.187-6.507-0.386
	c-3.449-0.319-6.868-0.822-10.258-1.526c-1.408-0.293-2.806-0.634-4.209-0.949c-0.418-0.093-0.835-0.183-1.255-0.269
	c-1.172-0.244-2.311-0.592-3.434-1.007c-2.469-0.914-4.943-1.813-7.412-2.725c-0.344-0.126-0.685-0.266-1.013-0.43
	c-3.39-1.707-6.787-3.405-10.161-5.144c-1.059-0.546-2.046-1.233-3.084-1.82c-1.364-0.769-2.645-1.661-3.894-2.601
	c-1.787-1.342-3.591-2.667-5.362-4.031c-0.749-0.579-1.447-1.229-2.148-1.866c-1.427-1.298-2.85-2.602-4.26-3.919
	c-1.727-1.612-3.225-3.438-4.82-5.174c-1.784-1.945-3.375-4.038-4.95-6.15c-2.427-3.253-4.428-6.758-6.399-10.289
	c-0.522-0.936-1.009-1.892-1.538-2.822c-0.969-1.709-1.754-3.503-2.469-5.328c-0.947-2.423-1.853-4.861-2.76-7.298
	c-0.524-1.407-0.868-2.866-1.227-4.322c-0.249-1.009-0.509-2.015-0.771-3.022c-0.678-2.608-1.205-5.247-1.577-7.917
	c-0.339-2.427-0.619-4.855-0.78-7.302c-0.093-1.407-0.154-2.811-0.15-4.221c0.005-2.145-0.018-4.289,0.04-6.434
	c0.04-1.467,0.183-2.932,0.306-4.395c0.178-2.135,0.465-4.262,0.837-6.371c0.352-1.987,0.734-3.97,1.145-5.945
	c0.198-0.958,0.5-1.892,0.736-2.841c0.546-2.2,1.236-4.357,1.954-6.503c0.244-0.725,0.537-1.432,0.808-2.146
	c1.586-4.177,2.58-6.34,4.61-10.188c1-1.896,2-3.791,3.135-5.61c1.005-1.61,2.026-3.209,3.15-4.743
	c0.994-1.359,1.921-2.765,2.888-4.144c0.262-0.375,0.535-0.747,0.848-1.081c1.83-1.936,3.668-3.864,5.514-5.787
	c1.507-1.568,3.029-3.121,4.54-4.685c1.172-1.214,2.421-2.35,3.791-3.331c3.337-2.39,6.701-4.742,10.065-7.089
	c0.498-0.348,1.07-0.593,1.604-0.892c1.577-0.881,3.152-1.765,4.727-2.648c0.187-0.104,0.368-0.225,0.562-0.311
	c2.841-1.293,5.644-2.663,8.635-3.61c2.392-0.756,4.754-1.61,7.131-2.416c1.478-0.502,2.987-0.899,4.509-1.245
	c2.029-0.462,4.069-0.877,6.124-1.203c0.3-0.048,0.608-0.059,0.912-0.095C90.644,15.474,90.942,15.428,91.31,15.378z M23.44,66.39
	c-0.377,0.304-0.544,0.593-0.7,0.89c-0.24,0.462-0.478,0.925-0.707,1.394c-2.124,4.333-3.731,8.862-5.062,13.49
	c-1.46,5.073-2.48,10.234-3.02,15.49c-0.278,2.714-0.443,5.434-0.483,8.161c-0.022,1.56,0.027,3.123,0.09,4.685
	c0.064,1.59,0.145,3.183,0.289,4.769c0.264,2.928,0.687,5.839,1.238,8.728c1.059,5.551,2.579,10.97,4.613,16.241
	c3.916,10.144,9.551,19.233,16.783,27.339c3.166,3.549,6.599,6.826,10.271,9.851c7.366,6.067,15.486,10.858,24.365,14.356
	c5.315,2.093,10.789,3.648,16.382,4.798c4.091,0.842,8.225,1.308,12.397,1.418c3.337,0.088,6.679,0.132,10.012-0.121
	c1.8-0.137,3.606-0.233,5.401-0.438c3.35-0.381,6.663-0.987,9.941-1.784c5.97-1.45,11.763-3.412,17.354-5.963
	c8.512-3.883,16.206-9.012,23.165-15.256c0.386-0.346,0.797-0.67,1.185-1.016c0.319-0.282,0.581-0.601,0.584-1.161
	c-0.238,0.117-0.399,0.185-0.548,0.275c-0.815,0.48-1.612,0.996-2.445,1.445c-4.848,2.604-9.948,4.606-15.206,6.203
	c-6.485,1.969-13.128,3.003-19.906,3.121c-1.806,0.031-3.613-0.038-5.417-0.11c-2.916-0.117-5.791-0.531-8.628-1.222
	c-6.848-1.668-13.073-4.674-18.798-8.749c-4.361-3.102-8.329-6.646-11.847-10.684c-2.093-2.403-4.115-4.864-5.857-7.544
	c-4.774-7.335-7.564-15.417-9.054-23.99c-0.425-2.447-0.7-4.912-0.85-7.39c-0.141-2.326-0.185-4.654,0.064-6.976
	c0.189-1.765,0.39-3.531,0.579-5.296c0.249-2.348,0.656-4.668,1.244-6.958c1.009-3.934,2.48-7.69,4.304-11.314
	c2.251-4.478,4.919-8.686,8.076-12.58c2.203-2.718,4.597-5.258,7.221-7.575c3.101-2.738,6.512-4.987,10.311-6.639
	c3.439-1.496,7.033-2.295,10.774-2.472c1.439-0.07,2.875-0.037,4.315,0.024c1.319,0.055,2.626,0.209,3.919,0.463
	c5.124,1.009,9.684,3.225,13.73,6.503c2.311,1.872,4.196,4.119,5.562,6.771c2.203,4.271,2.355,8.622,0.401,13.021
	c-0.894,2.016-2.221,3.734-3.839,5.223c-0.811,0.747-1.67,1.439-2.502,2.165c-0.245,0.216-0.571,0.368-0.665,0.771
	c0.104,0.055,0.2,0.136,0.31,0.163c0.628,0.157,1.262,0.218,1.912,0.152c1.097-0.11,2.196-0.192,3.295-0.278
	c3.527-0.282,6.668-1.542,9.397-3.782c2.654-2.178,4.621-4.881,5.972-8.034c1.32-3.082,1.899-6.324,2.099-9.646
	c0.121-2.026,0-4.042-0.342-6.042c-0.348-2.031-0.89-4.007-1.722-5.895c-0.868-1.967-2.108-3.65-3.815-4.981
	c-1.524-1.19-3.091-2.311-4.763-3.282c-3.392-1.967-6.981-3.423-10.844-4.163c-2.165-0.416-4.329-0.432-6.469,0.147
	c-2.899,0.786-5.762,1.678-8.554,2.797c-5.868,2.348-11.904,3.959-18.266,4.185c-2.306,0.082-4.593-0.035-6.873-0.33
	c-2.866-0.372-5.639-1.135-8.351-2.135c-1.753-0.646-3.524-1.247-5.289-1.857c-0.835-0.288-0.921-0.249-1.441,0.487
	c-0.106,0.15-0.2,0.31-0.304,0.46c-0.386,0.551-0.764,1.112-1.167,1.65c-2.075,2.765-4.579,5.1-7.305,7.207
	c-6.018,4.646-12.607,8.232-19.83,10.629c-3.727,1.238-7.512,2.238-11.437,2.624c-2.641,0.26-5.262,0.168-7.857-0.416
	c-1.388-0.311-2.692-0.826-3.866-1.641c-1.908-1.324-3.057-3.135-3.482-5.415c-0.216-1.157-0.216-2.313-0.046-3.474
	C23.513,67.421,23.594,66.969,23.44,66.39z M131.455,101.004c0.125,0.229,0.19,0.434,0.322,0.582
	c0.57,0.641,1.135,1.287,1.747,1.886c0.727,0.711,1.575,1.264,2.516,1.665c4.009,1.711,8.185,2.74,12.541,2.971
	c2.822,0.148,5.633,0.016,8.423-0.467c6.95-1.205,13.144-4.047,18.523-8.611c2.791-2.368,4.989-5.225,6.562-8.536
	c3.113-6.555,3.899-13.408,2.568-20.523c-1.051-5.617-3.234-10.774-6.315-15.569c-2.494-3.886-5.487-7.364-8.697-10.664
	c-2.161-2.223-4.474-4.273-7.034-6.034c-0.694-0.478-1.249-1.079-1.612-1.848c-0.278-0.59-0.418-1.216-0.496-1.855
	c-0.628-5.1-2.504-9.701-5.529-13.84c-3.751-5.133-8.573-8.957-14.305-11.666c-3.058-1.443-6.258-2.487-9.514-3.37
	c-4.419-1.198-8.913-1.971-13.481-2.254c-3.734-0.231-7.472-0.216-11.199,0.165c-2.297,0.234-4.529,0.756-6.674,1.624
	c-1.2,0.485-2.335,1.084-3.355,1.885c-2.809,2.203-3.996,5.029-3.262,8.584c0.062,0.299,0.13,0.601,0.15,0.905
	c0.029,0.432-0.147,0.711-0.549,0.857c-0.315,0.115-0.646,0.189-0.976,0.255c-2.223,0.441-4.45,0.864-6.672,1.313
	c-8.32,1.676-16.201,4.566-23.665,8.595c-8.752,4.721-16.574,10.664-23.36,17.946c-2.489,2.67-4.831,5.459-6.888,8.481
	c-2.326,3.419-4.159,7.069-5.285,11.062c-0.599,2.117-0.85,4.253-0.61,6.45c0.139,1.273,0.623,2.352,1.489,3.28
	c1.168,1.251,2.628,1.987,4.264,2.401c1.615,0.408,3.269,0.533,4.923,0.52c2.458-0.02,4.879-0.396,7.276-0.94
	c7.798-1.767,14.99-4.936,21.645-9.346c2.275-1.507,4.483-3.106,6.523-4.923c2.582-2.298,4.817-4.881,6.492-7.923
	c0.073-0.134,0.152-0.267,0.238-0.394c0.396-0.579,0.687-0.657,1.317-0.346c0.22,0.108,0.421,0.251,0.639,0.363
	c0.326,0.167,0.648,0.353,0.993,0.473c2.461,0.844,4.926,1.685,7.397,2.505c5.002,1.659,10.131,2.004,15.342,1.447
	c3.518-0.377,6.941-1.179,10.267-2.392c3.165-1.156,6.324-2.326,9.492-3.472c3.503-1.269,7.091-1.573,10.767-0.943
	c2.308,0.396,4.524,1.081,6.672,2.002c3.199,1.37,6.15,3.172,8.961,5.205c2.179,1.577,3.802,3.635,4.91,6.084
	c1.654,3.661,2.361,7.527,2.341,11.527c-0.007,1.743-0.167,3.485-0.462,5.212c-0.712,4.177-2.232,8.014-4.793,11.41
	c-1.934,2.564-4.322,4.579-7.241,5.947c-2.445,1.146-5.029,1.742-7.712,1.928c-1.496,0.104-2.998,0.134-4.498,0.203
	C132.24,100.83,131.898,100.784,131.455,101.004z"/>
<path d="M180.128,44.523c-0.396,0-0.795-0.038-1.196-0.117c-1.073-0.212-2.112-0.619-3.179-1.244
	c-0.601-0.353-1.185-0.738-1.756-1.141l-5.853-4.135c-0.223-0.157-0.454-0.304-0.685-0.449l-0.364-0.233
	c-0.571-0.37-1.17-0.777-1.667-1.319l-0.19-0.205l-0.07-0.458c-0.207-1.313-0.022-1.87,1.487-2.586
	c2.395-1.137,4.622-1.689,6.811-1.689l1.013,0.011c0.214,0,0.903-0.015,0.903-0.015c0.842,0,1.659,0.145,2.43,0.43
	c1.192,0.44,2.287,0.844,3.28,1.57c1.134,0.833,2.095,1.853,2.855,3.035c0.414,0.641,0.864,1.425,1.068,2.374
	c0.233,1.077,0.238,2.02,0.016,2.881c-0.311,1.203-1.163,2.174-2.397,2.736C181.827,44.34,180.987,44.523,180.128,44.523z
	 M173.026,36.888c1.167,0.824,2.333,1.648,3.507,2.463c0.886,0.614,1.91,1.097,3.04,1.434c0.282,0.082,0.533,0.125,0.767,0.125
	c0.073,0,0.147-0.004,0.222-0.013c0.467-0.055,0.729-0.37,0.846-0.551c0.165-0.262,0.227-0.566,0.158-0.773l-0.092-0.284
	c-0.051-0.165-0.101-0.33-0.174-0.485c-0.773-1.652-1.938-2.802-3.557-3.518c-1.004-0.445-2.079-0.668-3.196-0.668
	c-0.663,0-1.361,0.079-2.075,0.234c-0.626,0.137-1.167,0.291-1.659,0.478C171.07,35.511,173.026,36.888,173.026,36.888z"/>
<path d="M166.099,35.267c-0.163-1.077-0.273-1.223,0.945-1.8c2.09-0.991,4.284-1.639,6.635-1.597
	c0.489,0.009,0.98,0.015,1.471-0.002c0.808-0.027,1.586,0.09,2.342,0.37c1.062,0.394,2.13,0.771,3.055,1.45
	c1.048,0.769,1.923,1.698,2.626,2.791c0.416,0.646,0.78,1.308,0.943,2.071c0.176,0.822,0.229,1.661,0.024,2.46
	c-0.256,0.996-0.958,1.709-1.89,2.132c-0.996,0.454-2.057,0.579-3.141,0.366c-1.031-0.203-1.991-0.606-2.894-1.135
	c-0.581-0.341-1.145-0.712-1.694-1.099c-1.956-1.372-3.901-2.76-5.853-4.133c-0.35-0.245-0.718-0.467-1.079-0.701
	C167.055,36.09,166.524,35.729,166.099,35.267z M169.072,35.145c0.203,0.178,0.304,0.284,0.421,0.366
	c0.52,0.375,1.046,0.744,1.57,1.113c1.648,1.161,3.293,2.328,4.948,3.478c1.011,0.701,2.121,1.207,3.3,1.56
	c0.445,0.132,0.894,0.198,1.357,0.143c1.331-0.156,2.091-1.555,1.764-2.527c-0.097-0.289-0.172-0.588-0.3-0.864
	c-0.85-1.813-2.179-3.156-4.016-3.969c-1.885-0.833-3.844-0.925-5.835-0.491C171.205,34.19,170.158,34.515,169.072,35.145z"/>
<path d="M67.165,182.853c-0.381,0-0.76-0.108-1.124-0.317c-0.211-0.123-1.183-0.712-1.183-0.712
	c-4.813-2.782-9.454-6.223-13.787-10.23c-5.86-5.417-10.926-11.492-15.06-18.059c-4.172-6.63-7.412-13.677-9.631-20.948
	c-0.335-1.093-0.626-2.203-0.916-3.311c-0.19-0.745-0.183-1.833,0.941-2.795l0.723-0.621l0.592,0.749
	c0.61,0.773,1.02,1.524,1.291,2.363c0,0,1.262,3.888,1.61,4.987c1.993,6.271,4.976,12.474,8.864,18.433
	c2.441,3.743,4.813,6.904,7.252,9.659c5.509,6.221,11.074,11.117,17.012,14.961c0.549,0.355,1.112,0.694,1.674,1.031l1.053,0.637
	c0.504,0.311,0.998,0.637,1.491,0.965c0.487,0.321,0.802,0.78,0.905,1.326c0.147,0.775-0.269,1.496-1.013,1.758
	C67.636,182.811,67.401,182.853,67.165,182.853z"/>
<path d="M27.002,127.176c0.537,0.679,0.901,1.342,1.137,2.077c0.537,1.661,1.081,3.32,1.61,4.983
	c2.112,6.643,5.168,12.831,8.97,18.658c2.229,3.416,4.63,6.708,7.335,9.763c5.099,5.76,10.723,10.93,17.199,15.124
	c0.899,0.582,1.831,1.115,2.742,1.679c0.494,0.306,0.982,0.625,1.465,0.947c0.264,0.174,0.451,0.41,0.511,0.733
	c0.062,0.328-0.099,0.614-0.416,0.725c-0.374,0.132-0.727,0.066-1.06-0.125c-0.397-0.229-0.782-0.48-1.181-0.711
	c-4.928-2.848-9.45-6.251-13.626-10.109c-5.743-5.309-10.736-11.25-14.906-17.876c-4.084-6.49-7.291-13.386-9.531-20.724
	c-0.33-1.082-0.619-2.179-0.903-3.276C26.171,128.334,26.363,127.724,27.002,127.176z"/>
<path d="M64.251,140.535c-0.56,0-0.963-0.319-1.157-0.473c-0.483-0.381-0.654-0.899-0.749-1.308l-0.291-1.234
	c-0.214-0.905-0.429-1.809-0.623-2.72c-0.533-2.513-0.901-4.998-1.095-7.381c-0.068-0.837-0.077-1.683-0.084-2.527l-0.016-1.106
	c0-2.297,0.143-4.773,0.449-7.818c0.881-8.745,3.297-16.902,7.179-24.239c0.41-0.777,0.853-1.538,1.297-2.298l0.123-0.212
	c0.198-0.337,0.408-0.599,0.645-0.802c0.288-0.251,0.65-0.388,1.02-0.388c0.672,0,1.264,0.451,1.476,1.119
	c0.196,0.632,0.163,1.291-0.101,1.96c-0.095,0.244-0.225,0.478-0.359,0.703c-2.703,4.525-4.732,9.556-6.207,15.378
	c-0.749,2.965-1.258,5.61-1.557,8.089c-0.337,2.809-0.465,5.707-0.392,8.858c0.064,2.786,0.388,5.628,0.991,8.686
	c0.322,1.641,0.617,3.284,0.912,4.928c0.084,0.463,0.106,0.806,0.092,1.165c-0.027,0.681-0.364,1.218-0.921,1.478
	C64.678,140.487,64.467,140.535,64.251,140.535z"/>
<path d="M61.151,123.766c0-2.579,0.187-5.146,0.445-7.705c0.848-8.412,3.113-16.409,7.077-23.902
	c0.443-0.839,0.925-1.659,1.403-2.48c0.121-0.209,0.271-0.416,0.452-0.571c0.368-0.321,0.875-0.156,1.022,0.313
	c0.143,0.458,0.093,0.912-0.079,1.35c-0.077,0.198-0.185,0.386-0.295,0.57c-2.914,4.881-4.915,10.128-6.306,15.624
	c-0.685,2.705-1.245,5.434-1.577,8.205c-0.357,2.985-0.467,5.983-0.397,8.989c0.07,2.978,0.432,5.921,1.007,8.844
	c0.331,1.683,0.634,3.37,0.936,5.058c0.049,0.267,0.062,0.548,0.051,0.822c-0.011,0.284-0.115,0.553-0.392,0.681
	c-0.326,0.15-0.592-0.026-0.837-0.218c-0.255-0.201-0.353-0.491-0.423-0.795c-0.304-1.313-0.63-2.621-0.91-3.938
	c-0.509-2.399-0.879-4.822-1.079-7.265C61.152,126.158,61.18,124.96,61.151,123.766z"/>
<path d="M22.547,139.185c-0.914-0.273-1.498-0.877-1.789-1.846c-0.674-2.238-1.13-4.082-1.438-5.802l-0.381-2.11
	c-0.346-1.921-0.694-3.842-1.013-5.765c-0.372-2.24-0.603-4.459-0.687-6.595c-0.057-1.427-0.278-6.417-0.278-6.417
	c-0.009-0.156-0.013-0.258-0.009-0.359l0.04-0.949c0.06-1.458,0.123-2.916,0.194-4.373c0.038-0.795,0.088-1.59,0.139-2.384
	l0.084-1.379c0.117-2.058,0.436-4.104,0.744-6.08c0,0,0.516-3.264,0.61-3.912c0.123-0.85,0.518-1.478,1.172-1.864
	c0.26-0.152,0.544-0.234,0.822-0.234c0.575,0,1.081,0.346,1.32,0.907c0.159,0.375,0.231,0.78,0.201,1.143l-0.031,0.416
	c-0.055,0.731-0.11,1.487-0.258,2.24c-0.447,2.278-0.76,4.328-0.956,6.267c-0.081,0.784-0.13,1.568-0.181,2.355
	c-0.031,0.491-0.062,0.98-0.101,1.469c-0.192,2.471-0.167,5.005-0.143,7.456l0.013,1.465c0.046,6.998,1.055,14.212,2.996,21.44
	l0.161,0.639c0.095,0.392,0.19,0.784,0.32,1.165c0.33,0.972,0.143,1.886-0.568,2.8l-0.385,0.496L22.547,139.185z"/>
<path d="M22.81,138.309c-0.679-0.205-0.994-0.634-1.176-1.234c-0.564-1.877-1.068-3.769-1.414-5.699
	c-0.469-2.621-0.956-5.238-1.392-7.864c-0.355-2.145-0.59-4.306-0.674-6.48c-0.084-2.141-0.185-4.282-0.278-6.423
	c-0.004-0.092-0.013-0.183-0.009-0.275c0.075-1.775,0.147-3.547,0.234-5.32c0.062-1.253,0.15-2.505,0.222-3.758
	c0.13-2.265,0.505-4.5,0.85-6.738c0.163-1.059,0.341-2.115,0.496-3.176c0.075-0.513,0.267-0.934,0.731-1.207
	c0.339-0.2,0.679-0.125,0.835,0.242c0.093,0.216,0.15,0.474,0.13,0.709c-0.066,0.853-0.11,1.716-0.275,2.553
	c-0.412,2.104-0.753,4.22-0.969,6.349c-0.13,1.278-0.183,2.564-0.284,3.846c-0.233,2.996-0.154,5.998-0.134,8.996
	c0.049,7.359,1.121,14.574,3.027,21.675c0.167,0.621,0.293,1.255,0.502,1.863C23.479,137.086,23.299,137.681,22.81,138.309z"/>
<path d="M53.69,149.666c-0.462,0-0.938-0.209-1.339-0.588c-0.229-0.214-0.445-0.447-0.659-0.681l-0.205-0.222
	c-5.762-6.17-9.576-13.591-11.335-22.057c-0.443-2.13-0.679-4.28-0.835-5.914l-0.125-1.211c-0.059-0.542-0.115-1.086-0.163-1.632
	c-0.051-0.59-0.097-1.146-0.04-1.723c0.134-1.363,0.288-2.727,0.441-4.09l0.267-2.373c0.064-0.542,0.128-1.084,0.163-1.63
	c0.101-1.452,1.015-2.024,1.764-2.251l0.386-0.115l0.346,0.207c0.537,0.322,1.15,0.947,1.027,2.099
	c-0.049,0.456-0.234,1.927-0.234,1.927l-0.026,0.19c-0.013,0.095-0.029,0.192-0.033,0.289l-0.081,1.595
	c-0.136,2.617-0.275,5.32-0.181,7.968c0.086,2.416,0.474,4.897,1.189,7.586c1.654,6.234,4.417,11.853,8.212,16.693
	c0.452,0.577,0.95,1.121,1.447,1.665l0.701,0.777c0.179,0.19,0.269,0.289,0.35,0.396c0.119,0.156,0.262,0.348,0.361,0.595
	c0.346,0.841,0.059,1.87-0.643,2.295C54.224,149.593,53.962,149.666,53.69,149.666z"/>
<path d="M41.888,106.168c0.513,0.308,0.639,0.727,0.586,1.216c-0.07,0.639-0.154,1.275-0.233,1.914
	c-0.022,0.183-0.055,0.364-0.064,0.548c-0.154,3.21-0.375,6.419-0.262,9.639c0.093,2.646,0.54,5.236,1.218,7.787
	c1.654,6.234,4.392,11.941,8.377,17.025c0.678,0.866,1.452,1.657,2.181,2.482c0.103,0.115,0.214,0.22,0.308,0.341
	c0.092,0.121,0.185,0.249,0.242,0.386c0.172,0.419,0.037,0.983-0.266,1.167c-0.258,0.156-0.641,0.071-0.994-0.262
	c-0.289-0.273-0.551-0.573-0.824-0.864c-5.749-6.154-9.397-13.388-11.107-21.616c-0.399-1.921-0.634-3.864-0.82-5.817
	c-0.09-0.945-0.207-1.886-0.288-2.831c-0.044-0.516-0.092-1.044-0.04-1.555c0.192-1.949,0.423-3.895,0.637-5.842
	c0.084-0.76,0.187-1.52,0.238-2.284C40.824,106.875,41.143,106.394,41.888,106.168z"/>
<path d="M69.114,82.638c-0.96,0-1.672-0.674-1.813-1.718c-0.024-0.174-0.022-0.352-0.015-0.529l0.007-0.223
	c0.174-1.965,0.392-3.881,1.139-5.725c0.916-2.264,2.5-3.897,4.707-4.859c0.714-0.311,1.461-0.549,2.209-0.788l0.725-0.233
	c0.22-0.073,0.447-0.11,0.661-0.11h0.097l0.262,0.038l0.299,0.064c0.526,0.112,1.068,0.227,1.606,0.43
	c1.189,0.451,2.055,1.311,2.434,2.425c0.381,1.115,0.225,2.33-0.443,3.417c-0.791,1.291-1.857,2.368-3.166,3.205
	c-0.991,0.632-1.993,1.245-3.013,1.831c-1.185,0.685-2.388,1.342-3.588,2l-0.355,0.194c-0.319,0.174-0.69,0.368-1.112,0.485
	C69.535,82.607,69.321,82.638,69.114,82.638z M76.734,72.15c-0.165,0-0.333,0.016-0.505,0.048c-2.216,0.41-4.557,2.41-4.948,5.406
	c0.152-0.082,5.287-3.029,5.287-3.029c0.595-0.342,1.016-0.91,1.407-1.897c0.037-0.119,0.004-0.172-0.13-0.244
	C77.49,72.243,77.128,72.15,76.734,72.15z"/>
<path d="M68.207,80.248c0.165-1.857,0.366-3.709,1.077-5.463c0.82-2.029,2.231-3.494,4.225-4.364
	c0.921-0.401,1.899-0.674,2.855-0.991c0.168-0.055,0.37-0.084,0.54-0.048c0.597,0.13,1.205,0.24,1.773,0.456
	c1.928,0.731,2.613,2.753,1.537,4.509c-0.731,1.19-1.703,2.161-2.877,2.912c-0.978,0.625-1.971,1.231-2.976,1.811
	c-1.297,0.747-2.613,1.465-3.927,2.185c-0.293,0.161-0.599,0.319-0.918,0.407c-0.725,0.203-1.201-0.125-1.3-0.866
	C68.185,80.618,68.207,80.432,68.207,80.248z M70.425,78.988c0.218-0.068,0.394-0.097,0.546-0.174
	c0.408-0.209,0.808-0.432,1.205-0.659c1.617-0.925,3.232-1.855,4.85-2.784c0.929-0.533,1.428-1.408,1.802-2.355
	c0.24-0.606,0.029-1.077-0.546-1.386c-0.696-0.375-1.43-0.476-2.218-0.331c-3.044,0.564-5.763,3.469-5.754,7.212
	C70.31,78.65,70.375,78.791,70.425,78.988z"/>
<path d="M144.106,69.564c-0.467,0-0.949-0.084-1.43-0.249c-0.804-0.275-1.613-0.639-2.405-1.081
	c-1.044-0.582-2.066-1.216-3.036-1.883c-1.399-0.96-2.771-1.963-4.143-2.967l-0.207-0.152c-0.324-0.238-0.645-0.549-0.95-0.927
	c-0.505-0.626-0.473-1.469,0.081-2.051c0.267-0.28,0.593-0.597,1.011-0.817c1.925-1,3.714-1.485,5.474-1.485
	c1.559,0.022,2.798,0.211,3.936,0.575c2.551,0.822,4.395,2.593,5.491,5.262c0.67,1.646,0.403,3.163-0.778,4.384
	C146.269,69.084,145.218,69.564,144.106,69.564z M140.699,64.352c0.496,0.342,0.991,0.687,1.498,1.013
	c0.568,0.363,1.117,0.538,1.681,0.538c0.086,0,0.174-0.004,0.262-0.013c0.201-0.02,0.357-0.101,0.449-0.234
	c0.093-0.136,0.114-0.321,0.057-0.52c-0.038-0.139-0.095-0.264-0.15-0.388c-0.531-1.19-1.377-2.038-2.59-2.595
	c-0.861-0.396-1.747-0.588-2.709-0.588c-0.559,0-1.143,0.068-1.742,0.2c-0.132,0.029-0.26,0.059-0.383,0.092
	C138.128,62.586,140.699,64.352,140.699,64.352z"/>
<path d="M138.626,58.87c1.201,0.018,2.383,0.161,3.527,0.531c2.41,0.777,3.983,2.439,4.923,4.736
	c0.505,1.236,0.374,2.405-0.588,3.401c-0.983,1.018-2.172,1.37-3.518,0.908c-0.778-0.266-1.538-0.614-2.256-1.015
	c-1.015-0.566-2.007-1.179-2.963-1.837c-1.463-1.004-2.895-2.055-4.328-3.102c-0.291-0.214-0.551-0.483-0.78-0.766
	c-0.214-0.266-0.203-0.593,0.035-0.842c0.229-0.242,0.482-0.483,0.771-0.635C135.07,59.409,136.771,58.843,138.626,58.87z
	 M135.257,61.663c0.328,0.251,0.537,0.423,0.76,0.579c1.234,0.853,2.471,1.703,3.709,2.551c0.656,0.451,1.308,0.91,1.978,1.341
	c0.767,0.491,1.612,0.758,2.527,0.668c0.991-0.097,1.564-0.963,1.298-1.914c-0.049-0.176-0.123-0.346-0.198-0.513
	c-0.625-1.405-1.654-2.416-3.042-3.055c-1.621-0.745-3.309-0.831-5.033-0.451C136.604,61.013,135.964,61.204,135.257,61.663z"/>
<path d="M86.73,190.118c-0.822-0.022-1.643-0.068-2.456-0.159c-2.071-0.24-4.174-0.745-6.252-1.502
	c-0.755-0.273-1.287-0.755-1.588-1.427l-0.064-0.141l-0.048-0.337l-0.033-0.403l0.266-0.394c0.489-0.524,1.123-0.802,1.833-0.802
	c0.196,0,0.399,0.022,0.606,0.062c0.322,0.064,0.639,0.174,0.952,0.284c2.192,0.778,4.355,1.174,6.476,1.19l0.223,0.002
	c0.258,0,0.516,0.002,0.771,0.026c0.381,0.038,0.687,0.104,0.96,0.211c0.725,0.278,1.222,1.086,1.095,1.797
	c-0.137,0.755-0.645,1.291-1.359,1.436c-0.377,0.077-0.826,0.154-1.289,0.154H86.73V190.118z"/>
<path d="M77.227,186.378c0.44-0.472,0.987-0.584,1.59-0.465c0.297,0.059,0.588,0.165,0.875,0.267
	c2.176,0.771,4.412,1.207,6.725,1.227c0.306,0.004,0.612-0.005,0.916,0.024c0.24,0.024,0.487,0.064,0.711,0.15
	c0.328,0.126,0.577,0.513,0.527,0.786c-0.064,0.361-0.278,0.625-0.641,0.698c-0.386,0.077-0.788,0.145-1.179,0.136
	c-0.793-0.02-1.586-0.064-2.373-0.154c-2.071-0.238-4.082-0.738-6.04-1.452c-0.487-0.178-0.855-0.465-1.066-0.938
	C77.234,186.578,77.241,186.481,77.227,186.378z"/>
<path d="M44.584,95.702c-0.52,0-0.998-0.266-1.35-0.747c-0.412-0.564-0.511-1.211-0.286-1.868c0.271-0.791,1.507-4.503,1.507-4.503
	c0.101-0.299,0.253-0.593,0.449-0.875c0.355-0.515,0.899-0.826,1.526-0.874c0.009,0,0.016,0,0.026,0
	c0.703,0,1.051,0.233,1.247,0.429c0.306,0.306,0.46,0.729,0.458,1.256c-0.015,0.211-0.029,0.377-0.088,0.564l-0.2,0.61
	c-0.511,1.566-1.024,3.134-1.553,4.694c-0.141,0.416-0.445,0.725-0.676,0.912C45.322,95.563,44.954,95.702,44.584,95.702z"/>
<path d="M47.248,88.517c-0.007,0.044-0.007,0.17-0.044,0.284c-0.577,1.765-1.152,3.533-1.749,5.293
	c-0.064,0.187-0.225,0.364-0.385,0.494c-0.397,0.321-0.797,0.24-1.097-0.174c-0.233-0.319-0.291-0.645-0.159-1.029
	c0.511-1.5,1-3.007,1.509-4.507c0.077-0.227,0.196-0.449,0.333-0.646c0.198-0.288,0.483-0.456,0.842-0.483
	C46.983,87.713,47.25,87.959,47.248,88.517z"/>
<path d="M66.63,151.428c-0.588,0-1.115-0.295-1.443-0.808c-0.181-0.282-0.344-0.579-0.494-0.879
	c-0.302-0.599-0.597-1.209-0.888-1.817c-0.115-0.244-0.222-0.491-0.293-0.745c-0.19-0.679,0.123-1.445,0.747-1.815
	c0.255-0.152,0.542-0.234,0.831-0.234c0.331,0,0.657,0.108,0.941,0.311c0.306,0.223,0.504,0.504,0.615,0.701
	c0.498,0.877,0.985,1.764,1.467,2.648c0.081,0.152,0.137,0.311,0.178,0.432l0.049,0.156l0.02,0.24
	c-0.026,0.72-0.592,1.624-1.363,1.776C66.874,151.415,66.749,151.428,66.63,151.428z"/>
<path d="M67.447,149.584c-0.015,0.377-0.357,0.857-0.623,0.908c-0.364,0.071-0.665-0.053-0.866-0.366
	c-0.163-0.256-0.31-0.524-0.447-0.797c-0.3-0.599-0.593-1.201-0.883-1.804c-0.092-0.192-0.178-0.388-0.236-0.592
	c-0.081-0.289,0.071-0.63,0.331-0.786c0.262-0.156,0.535-0.137,0.773,0.035c0.143,0.103,0.266,0.255,0.353,0.408
	c0.494,0.874,0.978,1.754,1.46,2.635C67.379,149.356,67.418,149.505,67.447,149.584z"/>
</svg>
