<?xml version="1.0" encoding="iso-8859-1"?>
<!-- Generator: Adobe Illustrator 19.0.0, SVG Export Plug-In . SVG Version: 6.00 Build 0)  -->
<svg version="1.1" id="Layer_1" xmlns="http://www.w3.org/2000/svg" xmlns:xlink="http://www.w3.org/1999/xlink" x="0px" y="0px"
	 viewBox="0 0 512 512" style="enable-background:new 0 0 512 512;" xml:space="preserve">
<g>
	<g>
		<path d="M177.595,155.193c-12.349,0-22.402,10.053-22.402,22.402c0,12.349,10.053,22.402,22.402,22.402
			c12.349,0,22.402-10.053,22.402-22.402C199.996,165.246,189.944,155.193,177.595,155.193z"/>
	</g>
</g>
<g>
	<g>
		<path d="M334.406,312.005c-12.349,0-22.402,10.053-22.402,22.402c0,12.349,10.053,22.402,22.402,22.402
			c12.349,0,22.402-10.053,22.402-22.402C356.808,322.057,346.755,312.005,334.406,312.005z"/>
	</g>
</g>
<g>
	<g>
		<path d="M491.153,256.001c13.617-14.953,19.283-35.681,14.427-56.967c-4.857-21.275-18.956-37.507-37.715-45.065
			c5.786-19.383,1.882-40.516-11.726-57.579c-13.597-17.053-33.384-25.541-53.521-24.24c-3.205-19.962-15.883-37.321-35.539-46.794
			c-19.645-9.451-41.128-8.575-58.749,1.389C296.79,10.151,277.833,0.011,256.011,0c-21.833,0-40.8,10.14-52.34,26.744
			c-17.621-9.964-39.104-10.84-58.75-1.389c-19.656,9.473-32.333,26.832-35.539,46.794c-20.138-1.324-39.914,7.175-53.521,24.24
			c-13.607,17.064-17.513,38.207-11.726,57.579c-18.759,7.57-32.859,23.791-37.715,45.065s0.81,42.014,14.428,56.966
			C7.23,270.953,1.564,291.681,6.42,312.967c4.857,21.275,18.956,37.507,37.715,45.065c-5.786,19.383-1.882,40.516,11.726,57.579
			c13.597,17.053,33.394,25.508,53.521,24.24c3.205,19.962,15.883,37.321,35.539,46.794c19.656,9.461,41.14,8.575,58.75-1.389
			C215.212,501.86,234.178,512,256.012,512c21.821-0.011,40.778-10.151,52.318-26.744c17.611,9.954,39.093,10.84,58.75,1.389
			c19.656-9.473,32.333-26.832,35.539-46.794c20.116,1.247,39.914-7.186,53.521-24.24c13.607-17.063,17.513-38.207,11.726-57.579
			c18.759-7.57,32.859-23.791,37.715-45.065C510.438,291.692,504.771,270.953,491.153,256.001z M121.591,177.595
			c0-30.878,25.126-56.004,56.004-56.004c30.878,0,56.004,25.126,56.004,56.004c0,30.878-25.126,56.004-56.004,56.004
			C146.716,233.599,121.591,208.473,121.591,177.595z M189.473,346.285c-3.282,3.282-7.581,4.923-11.878,4.923
			c-4.298,0-8.598-1.641-11.878-4.923c-6.563-6.563-6.563-17.195,0-23.758l156.812-156.812c6.563-6.563,17.195-6.563,23.758,0
			c6.563,6.563,6.563,17.196,0,23.758L189.473,346.285z M334.406,390.411c-30.878,0-56.004-25.126-56.004-56.004
			s25.126-56.004,56.004-56.004s56.004,25.126,56.004,56.004S365.285,390.411,334.406,390.411z"/>
	</g>
</g>
<g>
</g>
<g>
</g>
<g>
</g>
<g>
</g>
<g>
</g>
<g>
</g>
<g>
</g>
<g>
</g>
<g>
</g>
<g>
</g>
<g>
</g>
<g>
</g>
<g>
</g>
<g>
</g>
<g>
</g>
</svg>
