<?xml version="1.0" encoding="utf-8"?>
<!-- Generator: Adobe Illustrator 17.0.0, SVG Export Plug-In . SVG Version: 6.00 Build 0)  -->
<!DOCTYPE svg PUBLIC "-//W3C//DTD SVG 1.1//EN" "http://www.w3.org/Graphics/SVG/1.1/DTD/svg11.dtd">
<svg version="1.1" id="Layer_1" xmlns="http://www.w3.org/2000/svg" xmlns:xlink="http://www.w3.org/1999/xlink" x="0px" y="0px"
	 width="200px" height="200px" viewBox="0 0 200 200" enable-background="new 0 0 200 200" xml:space="preserve">
<g>
	<g>
		<g>
			<path d="M171.429,76.964c0-39.643-31.964-71.607-71.429-71.607S28.571,37.321,28.571,76.786c0,0,0,0,0,0.179
				C12.679,77.857,0,91.071,0,107.143v3.571c0,16.786,13.571,30.357,30.357,30.357h1.607l12.679,20.179
				c8.929,14.286,24.107,22.679,40.893,22.679h2.5c1.607,6.071,7.143,10.714,13.75,10.714c7.857,0,14.286-6.429,14.286-14.286
				s-6.429-14.286-14.286-14.286c-6.607,0-12.143,4.643-13.75,10.714h-2.5c-14.286,0-27.321-7.321-34.821-19.464l-10.357-16.25h2.5
				c3.929,0,7.143-3.214,7.143-7.143v-50c0-3.929-3.214-7.143-7.143-7.143h-7.143C35.714,41.25,64.464,12.5,100,12.5
				s64.286,28.75,64.286,64.286h-7.143c-3.929,0-7.143,3.214-7.143,7.143v50c0,3.929,3.214,7.143,7.143,7.143h12.5
				c16.786,0,30.357-13.571,30.357-30.357v-3.571C200,91.071,187.321,77.857,171.429,76.964z M101.786,173.214
				c3.929,0,7.143,3.214,7.143,7.143s-3.214,7.143-7.143,7.143s-7.143-3.214-7.143-7.143
				C94.643,176.429,97.857,173.214,101.786,173.214z M42.857,83.929v50h-12.5c-12.857,0-23.214-10.357-23.214-23.214v-3.571
				c0-12.857,10.357-23.214,23.214-23.214L42.857,83.929L42.857,83.929z M192.857,110.714c0,12.857-10.357,23.214-23.214,23.214
				h-12.5v-50h12.5c12.857,0,23.214,10.357,23.214,23.214V110.714z"/>
		</g>
	</g>
</g>
<path fill="#FFFFFF" d="M144.064,54.222c-0.216,0-0.434-0.021-0.653-0.064c-0.585-0.115-1.152-0.337-1.736-0.679
	c-0.328-0.193-0.647-0.403-0.959-0.623c-0.644-0.452-3.196-2.258-3.196-2.258c-0.122-0.085-0.248-0.166-0.375-0.246l-0.198-0.126
	c-0.312-0.202-0.64-0.424-0.911-0.72l-0.104-0.112l-0.038-0.25c-0.113-0.717-0.012-1.022,0.813-1.412
	c1.308-0.62,2.524-0.921,3.722-0.921l0.55,0.006c0.117,0,0.493-0.008,0.493-0.008c0.459,0,0.905,0.079,1.328,0.235
	c0.655,0.242,1.251,0.462,1.79,0.857c0.619,0.455,1.144,1.012,1.56,1.657c0.226,0.351,0.471,0.779,0.582,1.296
	c0.128,0.59,0.13,1.105,0.009,1.574c-0.169,0.656-0.634,1.187-1.309,1.493C144.992,54.121,144.533,54.222,144.064,54.222
	L144.064,54.222z"/>
<path fill="#FFFFFF" d="M136.403,49.167c0.232,0.252,0.522,0.449,0.816,0.639c0.197,0.127,0.397,0.248,0.589,0.383
	c1.066,0.751,2.128,1.508,3.196,2.257c0.301,0.211,0.608,0.414,0.925,0.6c0.493,0.289,1.017,0.509,1.58,0.62
	c0.591,0.117,1.171,0.048,1.715-0.2c0.509-0.231,0.891-0.62,1.032-1.164c0.113-0.436,0.084-0.894-0.013-1.343
	c-0.09-0.417-0.288-0.779-0.515-1.131c-0.384-0.597-0.862-1.104-1.434-1.524c-0.506-0.371-1.089-0.578-1.668-0.792
	c-0.413-0.153-0.839-0.217-1.279-0.202c-0.267,0.009-0.535,0.006-0.803,0.001c-1.283-0.023-2.481,0.331-3.623,0.872
	C136.255,48.499,136.314,48.579,136.403,49.167z"/>
<path d="M103.055,139.489c-0.516,0-1.031-0.006-1.547-0.013c-1.054-0.016-2.162-0.082-3.593-0.214
	c-1.918-0.178-3.821-0.46-5.657-0.841c-0.515-0.107-1.027-0.226-1.539-0.344l-0.767-0.177l-0.678-0.146
	c-0.625-0.13-1.262-0.316-1.946-0.57l-4.046-1.487c-0.206-0.075-0.41-0.159-0.604-0.258l-0.981-0.493
	c-1.526-0.768-3.053-1.534-4.571-2.317c-0.349-0.18-0.684-0.386-1.019-0.593c-0.226-0.14-0.451-0.279-0.682-0.409
	c-0.671-0.38-1.364-0.842-2.181-1.456l-0.952-0.712c-0.663-0.494-1.326-0.988-1.98-1.492c-0.375-0.29-0.727-0.61-1.077-0.931
	l-0.127-0.115c-0.781-0.711-1.559-1.424-2.331-2.146c-0.682-0.637-1.304-1.337-1.905-2.013c-0.25-0.281-0.5-0.563-0.754-0.84
	c-0.988-1.076-1.858-2.221-2.736-3.397c-1.332-1.785-2.43-3.702-3.529-5.674c-0.132-0.236-0.26-0.476-0.389-0.714
	c-0.147-0.276-0.295-0.552-0.45-0.823c-0.473-0.834-0.911-1.779-1.378-2.974c-0.509-1.301-0.996-2.609-1.482-3.919
	c-0.305-0.819-0.494-1.589-0.676-2.334l-0.038-0.155c-0.131-0.53-0.268-1.059-0.405-1.588c-0.39-1.502-0.684-2.975-0.887-4.435
	c-0.212-1.524-0.349-2.803-0.43-4.023c-0.058-0.872-0.085-1.637-0.083-2.339V88.63c-0.001-0.869-0.002-1.739,0.022-2.607
	c0.019-0.683,0.078-1.366,0.137-2.047l0.033-0.381c0.094-1.13,0.25-2.316,0.463-3.523c0.192-1.09,0.403-2.178,0.627-3.261
	c0.068-0.328,0.157-0.651,0.247-0.975c0.055-0.198,0.11-0.396,0.159-0.596c0.312-1.255,0.703-2.467,1.079-3.59
	c0.095-0.282,0.203-0.559,0.311-0.836l0.137-0.354c0.849-2.238,1.396-3.445,2.542-5.62c0.538-1.02,1.094-2.075,1.73-3.094
	c0.501-0.803,1.09-1.734,1.74-2.621c0.339-0.463,0.664-0.938,0.989-1.412c0.193-0.282,0.387-0.564,0.583-0.844
	c0.156-0.224,0.321-0.447,0.509-0.646c1-1.059,2.005-2.113,3.014-3.163c0.498-0.518,2.481-2.559,2.481-2.559
	c0.73-0.756,1.43-1.371,2.138-1.878c1.824-1.307,3.662-2.592,5.501-3.875c0.197-0.138,0.413-0.25,0.628-0.36
	c0.097-0.05,0.194-0.1,0.29-0.153l2.671-1.499c0.083-0.049,0.167-0.097,0.254-0.137l0.715-0.328
	c1.301-0.599,2.646-1.218,4.056-1.664c0.873-0.276,1.738-0.576,2.603-0.875l1.282-0.441c0.745-0.252,1.542-0.473,2.511-0.694
	c1.25-0.284,2.355-0.501,3.376-0.664c0.111-0.018,0.222-0.027,0.333-0.037l0.27-0.029c-0.015-0.382-0.032-0.764-0.051-1.147
	c-0.022-0.459,0.076-0.903,0.3-1.358c0.208-0.422,0.415-0.847,0.587-1.285c0.231-0.584,0.615-1.069,1.21-1.526
	c0.966-0.741,2.082-1.333,3.318-1.759c0.764-0.264,1.566-0.468,2.455-0.623c0.965-0.168,1.961-0.253,2.96-0.253l1.535,0.006
	c0.327,0,0.654-0.002,0.981-0.009l0.282-0.003c0.927,0,1.839,0.091,2.687,0.189c0.92,0.106,1.839,0.226,2.753,0.371
	c0.799,0.126,1.593,0.286,2.386,0.448c0.594,0.121,1.043,0.231,1.457,0.358c0.62,0.189,1.232,0.402,1.846,0.615l0.215,0.075
	c0.603,0.208,1.202,0.425,1.802,0.645c1.271,0.465,2.346,0.996,3.289,1.625c0.566,0.377,1.141,0.744,1.718,1.105
	c0.481,0.301,0.949,0.654,1.388,1.05l0.434,0.387c0.633,0.562,1.287,1.143,1.852,1.821c0.266,0.319,0.515,0.654,0.75,0.996
	c0.292,0.427,0.576,0.858,0.86,1.289l0.34,0.513c0.579,0.872,1.034,1.804,1.353,2.77l0.268,0.825
	c0.152,0.471,0.305,0.941,0.464,1.41c0.161,0.479,0.229,0.958,0.295,1.421l0.045,0.283c0.025,0.136,0.049,0.273,0.053,0.41
	c0.007,0.241,0.122,0.418,0.427,0.656c0.162,0.125,0.32,0.255,0.479,0.385c0.2,0.164,0.401,0.329,0.608,0.483
	c1.121,0.835,2.093,1.833,3.031,2.797l0.604,0.617c0.573,0.581,1.123,1.185,1.671,1.79l0.459,0.504
	c0.193,0.211,0.372,0.438,0.539,0.671c0.16,0.221,0.316,0.447,0.474,0.673c0.214,0.308,0.427,0.615,0.651,0.915
	c0.445,0.595,0.785,1.241,1.114,1.866l0.467,0.872c0.326,0.6,0.652,1.2,0.947,1.815c0.297,0.616,0.555,1.242,0.767,1.86
	c0.295,0.868,0.497,1.547,0.655,2.201c0.155,0.647,0.283,1.338,0.393,2.113c0.161,1.141,0.218,2.35,0.17,3.592
	c-0.041,1.053-0.157,2.083-0.344,3.061l-0.055,0.29c-0.034,0.187-0.068,0.373-0.107,0.558l-0.037,0.174
	c-0.054,0.258-0.108,0.517-0.195,0.763c-0.718,2.033-1.556,3.729-2.563,5.184c-0.475,0.687-1.052,1.355-1.766,2.045
	c-0.684,0.661-1.489,1.28-2.462,1.894l-1.03,0.652c-0.688,0.436-1.377,0.872-2.068,1.304c-0.211,0.131-0.452,0.249-0.718,0.35
	c-1.813,0.685-3.703,1.225-5.616,1.605c-0.852,0.169-1.561,0.249-2.231,0.249l-0.273-0.005c-0.216-0.007-0.433-0.01-0.649-0.01
	c-0.225,0-0.449,0.003-0.674,0.01l-0.263,0.003c-0.855,0-1.696-0.121-2.478-0.251l-0.273-0.045c-0.245-0.04-0.49-0.08-0.733-0.13
	c-0.37-0.078-0.738-0.164-1.103-0.266c-0.618-0.173-1.235-0.349-1.846-0.546c-0.899-0.291-1.694-0.654-2.431-1.109
	c-1.123-0.696-2.014-1.674-2.647-2.908c-0.254-0.497-0.217-0.987-0.185-1.419l0.018-0.23l0.19-0.188
	c0.486-0.356,0.892-0.627,1.273-0.854c0.904-0.539,1.695-1.233,2.417-2.124c0.319-0.394,0.567-0.789,0.76-1.207l0.169-0.362
	c0.132-0.282,0.265-0.564,0.384-0.852c0.058-0.141,0.085-0.297,0.114-0.451c0.142-0.703,0.193-1.334,0.17-1.962l-0.001-0.105
	c-0.061-0.301-0.107-0.522-0.155-0.745c-0.052-0.247-0.104-0.494-0.177-0.736c-0.23-0.76-0.593-1.462-1.11-2.146
	c-0.391-0.517-0.782-1.015-1.256-1.414c-0.162-0.137-0.329-0.269-0.496-0.4c-0.23-0.182-0.46-0.364-0.68-0.558
	c-0.616-0.543-1.319-0.959-1.987-1.339c-0.849-0.482-1.813-0.891-3.038-1.286c-0.373-0.121-0.767-0.194-1.183-0.271l-0.475-0.091
	c-0.319-0.065-0.64-0.12-0.962-0.167c-0.156-0.023-0.318-0.032-0.479-0.033l-1.585,0.001c-0.31,0-0.935-0.005-0.938-0.005
	c-0.645,0-1.243,0.07-1.973,0.219c-0.893,0.183-1.71,0.404-2.5,0.677c-2.252,0.778-4.107,1.907-5.673,3.452
	c-0.48,0.474-0.971,0.937-1.463,1.399c-0.314,0.296-0.628,0.591-0.939,0.89c-0.761,0.73-1.45,1.521-2.05,2.348
	c-0.936,1.293-1.748,2.459-2.482,3.564c-0.839,1.262-1.537,2.604-2.075,3.99c-0.337,0.867-0.673,1.735-0.985,2.613
	c-0.179,0.505-0.318,1.026-0.457,1.544l-0.101,0.373c-0.146,0.54-0.285,1.05-0.372,1.577l-0.145,0.845
	c-0.14,0.798-0.285,1.624-0.359,2.438c-0.081,0.873-0.172,2.026-0.155,3.201l0.001,0.104c0.012,0.808,0.024,1.618,0.078,2.425
	c0.036,0.535,0.105,1.069,0.174,1.604l0.071,0.562c0.15,1.236,0.422,2.483,0.686,3.689l0.108,0.498
	c0.105,0.484,0.252,0.961,0.398,1.438c0.077,0.249,0.153,0.498,0.224,0.748c0.241,0.846,0.597,1.681,0.941,2.487
	c0.13,0.305,0.26,0.609,0.385,0.916c0.044,0.108,0.104,0.208,0.164,0.31l0.405,0.726c0.232,0.417,0.465,0.835,0.683,1.259
	c0.431,0.839,0.954,1.671,1.556,2.473c0.154,0.205,0.304,0.414,0.454,0.624c0.396,0.553,0.77,1.076,1.227,1.531
	c0.438,0.636,0.924,1.101,1.44,1.593c0.259,0.247,0.519,0.495,0.764,0.756c0.166,0.176,0.339,0.345,0.513,0.514
	c0.187,0.182,0.373,0.363,0.552,0.554c0.785,0.835,1.671,1.538,2.512,2.172l0.466,0.346c0.237,0.175,0.474,0.349,0.706,0.529
	c0.571,0.444,1.195,0.81,1.837,1.176c0.7,0.398,1.396,0.806,2.089,1.214c0.653,0.385,1.352,0.661,2.092,0.954l1.104,0.442
	c1.021,0.423,2.151,0.756,3.456,1.02c0.691,0.141,1.445,0.239,2.372,0.312c0.187,0.014,0.372,0.047,0.557,0.081l0.37,0.061
	c0.107,0.017,0.216,0.034,0.323,0.035l4.376,0.002c0.488-0.13,0.881-0.16,1.261-0.19l0.265-0.022
	c0.877-0.079,1.808-0.213,2.934-0.419c0.233-0.043,0.469-0.082,0.704-0.12c0.273-0.046,0.548-0.091,0.819-0.144
	c0.264-0.051,0.523-0.119,0.784-0.188l0.623-0.16c0.47-0.119,0.939-0.237,1.403-0.379c0.584-0.178,1.162-0.373,1.74-0.568
	l0.628-0.212c0.472-0.157,0.943-0.317,1.412-0.483c0.084-0.029,0.165-0.07,0.245-0.109l0.173-0.082l0.67-0.294
	c0.522-0.229,1.045-0.456,1.557-0.705c0.443-0.216,0.876-0.455,1.308-0.695l1.149-0.627l0.236-0.122
	c0.312-0.16,0.605-0.311,0.863-0.506c0.201-0.153,0.434-0.292,0.729-0.436c0.359-0.175,0.712-0.409,1.109-0.737
	c0.64-0.528,2.563-2.101,2.563-2.101c0.107-0.092,0.162-0.137,0.22-0.179c0.162-0.114,0.343-0.174,0.524-0.174
	c0.157,0,0.308,0.043,0.448,0.127c0.341,0.209,0.509,0.555,0.45,0.926c-0.024,0.159-0.079,0.316-0.158,0.453
	c-0.081,0.14-0.18,0.271-0.285,0.396l-0.714,0.84c-0.444,0.521-0.888,1.041-1.321,1.569c-0.508,0.618-1.078,1.157-1.519,1.559
	c-0.252,0.229-0.503,0.461-0.739,0.705c-0.598,0.615-1.267,1.14-1.913,1.646l-0.643,0.508c-1.24,0.987-2.479,1.975-3.734,2.943
	c-0.449,0.347-0.948,0.676-1.483,0.977c-1.604,0.904-3.216,1.794-4.834,2.676c-1.104,0.601-2.128,1.065-3.127,1.42
	c-1.351,0.479-2.692,0.983-4.03,1.496c-0.872,0.336-1.79,0.599-2.728,0.783l-1.495,0.298c-1.126,0.226-2.252,0.451-3.381,0.657
	c-0.818,0.148-1.652,0.249-2.458,0.346l-0.252,0.03C106.517,139.413,105.011,139.489,103.055,139.489z M57.949,68.126
	c-0.936,1.987-1.753,4.213-2.493,6.785c-0.796,2.771-1.345,5.587-1.631,8.371c-0.152,1.472-0.24,2.956-0.261,4.412
	c-0.012,0.855,0.016,1.722,0.048,2.53c0.035,0.86,0.079,1.721,0.157,2.579c0.137,1.524,0.362,3.111,0.669,4.717
	c0.581,3.046,1.42,6,2.494,8.782c2.08,5.389,5.132,10.359,9.071,14.774c1.68,1.883,3.548,3.675,5.553,5.326
	c3.971,3.271,8.402,5.881,13.169,7.76c2.766,1.089,5.665,1.938,8.862,2.595c2.176,0.447,4.424,0.705,6.682,0.765
	c0.8,0.021,1.6,0.038,2.399,0.038c1.123,0,2.109-0.034,3.017-0.104l0.797-0.057c0.712-0.05,1.425-0.099,2.134-0.18
	c1.749-0.198,3.554-0.522,5.366-0.963c3.294-0.801,6.451-1.886,9.387-3.225c3.932-1.794,7.647-4.141,11.068-6.99
	c-2.147,1.051-4.465,1.948-7.038,2.729c-3.56,1.081-7.263,1.661-11.005,1.726l-0.505,0.004c-0.827,0-1.655-0.031-2.483-0.064
	c-1.595-0.064-3.213-0.293-4.809-0.681c-3.647-0.89-7.158-2.523-10.436-4.856c-2.453-1.745-4.658-3.734-6.556-5.913
	c-1.024-1.175-2.21-2.591-3.241-4.174c-2.486-3.819-4.127-8.166-5.017-13.286c-0.227-1.307-0.385-2.682-0.47-4.09
	c-0.096-1.563-0.084-2.765,0.037-3.894l0.316-2.891c0.141-1.33,0.374-2.632,0.692-3.871c0.539-2.102,1.32-4.156,2.387-6.279
	c1.273-2.532,2.777-4.874,4.469-6.959c1.258-1.552,2.604-2.963,4-4.196c1.781-1.572,3.719-2.819,5.762-3.708
	c1.889-0.822,3.927-1.29,6.059-1.391c0.32-0.015,0.642-0.021,0.962-0.021c0.479,0,0.959,0.014,1.438,0.034
	c0.743,0.031,1.488,0.119,2.216,0.262c2.81,0.553,5.406,1.782,7.715,3.652c1.344,1.088,2.409,2.385,3.167,3.856
	c1.277,2.475,1.355,5.013,0.232,7.542c-0.486,1.096-1.231,2.111-2.214,3.017c-0.281,0.259-0.574,0.507-0.866,0.755
	c-0.065,0.055-0.131,0.11-0.195,0.166c0.052-0.002,0.104-0.005,0.157-0.011c0.494-0.049,0.989-0.088,1.484-0.127l0.324-0.026
	c1.818-0.145,3.452-0.802,4.854-1.954c1.351-1.109,2.4-2.521,3.118-4.197c0.626-1.458,0.987-3.125,1.106-5.101
	c0.063-1.047,0.002-2.118-0.182-3.185c-0.197-1.154-0.493-2.169-0.904-3.102c-0.462-1.045-1.094-1.873-1.933-2.528
	c-0.943-0.736-1.752-1.293-2.545-1.754c-1.922-1.114-3.807-1.839-5.764-2.214c-0.538-0.104-1.063-0.156-1.562-0.156
	c-0.602,0-1.188,0.077-1.745,0.227c-1.789,0.484-3.256,0.964-4.616,1.509c-3.617,1.447-6.935,2.207-10.142,2.32
	c-0.269,0.01-0.537,0.015-0.805,0.015c-0.994,0-2.014-0.067-3.03-0.198c-1.487-0.193-3.014-0.583-4.668-1.192
	c-0.773-0.285-1.552-0.554-2.332-0.822c0,0-0.639-0.22-0.672-0.23c-0.034,0.044-0.071,0.097-0.09,0.124l-0.163,0.247l-0.186,0.267
	c-0.151,0.218-0.303,0.437-0.462,0.649c-1.052,1.402-2.387,2.721-4.083,4.03c-3.375,2.606-7.068,4.585-10.976,5.883
	c-2.426,0.806-4.446,1.268-6.354,1.456c-0.523,0.051-1.042,0.078-1.541,0.078c-1.002,0-1.981-0.106-2.908-0.314
	c-0.88-0.198-1.628-0.516-2.287-0.974c-1.142-0.792-1.851-1.895-2.107-3.276C57.993,68.685,57.961,68.408,57.949,68.126z
	 M118.393,85.446c0.186,0.207,0.374,0.411,0.573,0.604c0.346,0.338,0.756,0.609,1.22,0.807c2.183,0.931,4.43,1.463,6.679,1.583
	c0.387,0.021,0.772,0.031,1.158,0.031c1.142,0,2.262-0.094,3.329-0.28c3.726-0.646,7.048-2.19,9.876-4.59
	c1.468-1.246,2.63-2.758,3.454-4.494c1.62-3.408,2.078-7.075,1.363-10.9c-0.539-2.871-1.675-5.671-3.378-8.323
	c-1.193-1.859-2.683-3.685-4.687-5.744c-1.27-1.305-2.501-2.362-3.766-3.231c-0.471-0.324-0.823-0.73-1.049-1.208
	c-0.158-0.334-0.258-0.705-0.314-1.166c-0.327-2.65-1.313-5.114-2.927-7.323c-1.937-2.648-4.501-4.738-7.621-6.212
	c-1.438-0.679-3.063-1.254-5.112-1.81c-2.423-0.657-4.865-1.065-7.261-1.214c-0.88-0.055-1.745-0.082-2.572-0.082
	c-1.189,0-2.354,0.057-3.461,0.17c-1.241,0.126-2.421,0.414-3.507,0.853c-0.679,0.274-1.238,0.587-1.711,0.958
	c-1.428,1.119-1.951,2.491-1.6,4.192c0.047,0.225,0.08,0.394,0.091,0.563c0.031,0.459-0.198,0.813-0.628,0.97
	c-0.195,0.071-0.401,0.119-0.606,0.16c0,0-2.94,0.575-3.641,0.716c-4.427,0.892-8.729,2.454-12.783,4.643
	c-4.787,2.583-9.035,5.847-12.627,9.7c-1.503,1.613-2.717,3.108-3.713,4.571c-1.327,1.951-2.25,3.879-2.819,5.894
	c-0.331,1.172-0.435,2.262-0.317,3.332c0.065,0.591,0.288,1.083,0.681,1.504c0.526,0.563,1.208,0.945,2.086,1.167
	c0.716,0.182,1.515,0.27,2.444,0.27h0.117c1.172-0.009,2.401-0.168,3.866-0.501c4.094-0.928,8.015-2.621,11.653-5.032
	c1.429-0.947,2.543-1.788,3.506-2.645c1.49-1.326,2.615-2.697,3.44-4.194c0.048-0.087,0.1-0.175,0.157-0.258
	c0.093-0.136,0.344-0.502,0.806-0.502c0.167,0,0.336,0.046,0.546,0.15c0.075,0.037,0.148,0.08,0.222,0.125
	c0.044,0.026,0.088,0.054,0.134,0.077l0.125,0.065c0.115,0.061,0.229,0.123,0.351,0.165c1.343,0.461,2.687,0.919,4.035,1.367
	c1.799,0.597,3.736,0.899,5.757,0.899c0.778,0,1.588-0.044,2.408-0.132c1.861-0.2,3.708-0.63,5.488-1.279l2.13-0.78
	c1.018-0.374,2.035-0.748,3.055-1.117c1.315-0.476,2.677-0.717,4.045-0.717c0.687,0,1.39,0.061,2.089,0.181
	c1.248,0.214,2.512,0.593,3.756,1.126c1.628,0.697,3.26,1.645,4.988,2.897c1.234,0.893,2.19,2.077,2.844,3.521
	c0.889,1.968,1.334,4.155,1.323,6.502c-0.005,0.961-0.093,1.947-0.26,2.928c-0.417,2.445-1.329,4.614-2.711,6.447
	c-1.129,1.497-2.522,2.641-4.141,3.399c-1.32,0.619-2.797,0.988-4.389,1.099c-0.537,0.037-1.075,0.057-1.614,0.077L118.393,85.446z"
	/>
<path d="M144.063,54.221c-0.216,0-0.434-0.021-0.653-0.064c-0.586-0.116-1.153-0.338-1.736-0.679
	c-0.328-0.193-0.647-0.403-0.959-0.623l-3.196-2.258c-0.122-0.086-0.248-0.166-0.374-0.245l-0.199-0.127
	c-0.312-0.202-0.639-0.424-0.91-0.72l-0.104-0.112l-0.038-0.25c-0.113-0.717-0.012-1.021,0.812-1.412
	c1.308-0.621,2.524-0.922,3.719-0.922l0.553,0.006c0.117,0,0.493-0.008,0.493-0.008c0.46,0,0.906,0.079,1.327,0.235
	c0.651,0.24,1.249,0.461,1.791,0.857c0.619,0.455,1.144,1.012,1.559,1.657c0.226,0.35,0.472,0.778,0.583,1.296
	c0.127,0.588,0.13,1.103,0.009,1.573c-0.17,0.657-0.635,1.187-1.309,1.494C144.991,54.121,144.532,54.221,144.063,54.221z
	 M140.185,50.052c0.637,0.45,1.274,0.9,1.915,1.345c0.484,0.335,1.043,0.599,1.66,0.783c0.154,0.045,0.291,0.068,0.419,0.068
	c0.04,0,0.08-0.002,0.121-0.007c0.255-0.03,0.398-0.202,0.462-0.301c0.09-0.143,0.124-0.309,0.086-0.422l-0.05-0.155
	c-0.028-0.09-0.055-0.18-0.095-0.265c-0.422-0.902-1.058-1.53-1.942-1.921c-0.548-0.243-1.135-0.365-1.745-0.365
	c-0.362,0-0.743,0.043-1.133,0.128c-0.342,0.075-0.637,0.159-0.906,0.261C139.117,49.3,140.185,50.052,140.185,50.052z"/>
<path fill="#FFFFFF" d="M-1.542,4.01c1.089-0.632,2.14-0.957,3.218-1.192c1.997-0.435,3.961-0.343,5.852,0.493
	c1.843,0.815,3.175,2.16,4.028,3.98c0.129,0.275,0.204,0.576,0.302,0.866c0.329,0.974-0.434,2.377-1.769,2.534
	c-0.463,0.054-0.912-0.01-1.36-0.144c-1.184-0.353-2.296-0.861-3.31-1.564c-1.662-1.152-3.31-2.324-4.963-3.488
	c-0.526-0.37-1.052-0.741-1.574-1.117C-1.237,4.294-1.339,4.188-1.542,4.01z"/>
<path d="M82.382,129.753c-0.208,0-0.415-0.059-0.614-0.173c-0.115-0.067-0.646-0.389-0.646-0.389
	c-2.628-1.519-5.162-3.398-7.528-5.586c-3.2-2.958-5.966-6.275-8.223-9.861c-2.278-3.62-4.047-7.468-5.259-11.438
	c-0.183-0.597-0.342-1.203-0.5-1.808c-0.104-0.407-0.1-1.001,0.514-1.526l0.395-0.339l0.323,0.409
	c0.333,0.422,0.557,0.832,0.705,1.29c0,0,0.689,2.123,0.879,2.723c1.088,3.424,2.717,6.811,4.84,10.065
	c1.333,2.044,2.628,3.77,3.96,5.274c3.008,3.397,6.047,6.07,9.289,8.169c0.3,0.194,0.607,0.379,0.914,0.563l0.575,0.348
	c0.275,0.17,0.545,0.348,0.814,0.527c0.266,0.175,0.438,0.426,0.494,0.724c0.08,0.423-0.147,0.817-0.553,0.96
	C82.639,129.73,82.511,129.753,82.382,129.753z"/>
<path d="M80.791,106.646c-0.306,0-0.526-0.174-0.632-0.258c-0.264-0.208-0.357-0.491-0.409-0.714L79.591,105
	c-0.117-0.494-0.234-0.988-0.34-1.485c-0.291-1.372-0.492-2.729-0.598-4.03c-0.037-0.457-0.042-0.919-0.046-1.38l-0.009-0.604
	c0-1.254,0.078-2.606,0.245-4.269c0.481-4.775,1.8-9.229,3.92-13.235c0.224-0.424,0.466-0.84,0.708-1.255l0.067-0.116
	c0.108-0.184,0.223-0.327,0.352-0.438c0.157-0.137,0.355-0.212,0.557-0.212c0.367,0,0.69,0.246,0.806,0.611
	c0.107,0.345,0.089,0.705-0.055,1.07c-0.052,0.133-0.123,0.261-0.196,0.384c-1.476,2.471-2.584,5.218-3.389,8.397
	c-0.409,1.619-0.687,3.063-0.85,4.417c-0.184,1.534-0.254,3.116-0.214,4.837c0.035,1.521,0.212,3.073,0.541,4.743
	c0.176,0.896,0.337,1.793,0.498,2.691c0.046,0.253,0.058,0.44,0.05,0.636c-0.015,0.372-0.199,0.665-0.503,0.807
	C81.024,106.62,80.909,106.646,80.791,106.646z"/>
<path d="M58.019,105.909c-0.499-0.149-0.818-0.479-0.977-1.008c-0.368-1.222-0.617-2.229-0.785-3.168l-0.208-1.152
	c-0.189-1.049-0.379-2.098-0.553-3.148c-0.203-1.223-0.329-2.435-0.375-3.601c-0.031-0.779-0.152-3.504-0.152-3.504
	c-0.005-0.085-0.007-0.141-0.005-0.196l0.022-0.518c0.033-0.796,0.067-1.592,0.106-2.388c0.021-0.434,0.048-0.868,0.076-1.302
	l0.046-0.753c0.064-1.124,0.238-2.241,0.406-3.32c0,0,0.282-1.782,0.333-2.136c0.067-0.464,0.283-0.807,0.64-1.018
	c0.142-0.083,0.297-0.128,0.449-0.128c0.314,0,0.59,0.189,0.721,0.495c0.087,0.205,0.126,0.426,0.11,0.624l-0.017,0.227
	c-0.03,0.399-0.06,0.812-0.141,1.223c-0.244,1.244-0.415,2.363-0.522,3.422c-0.044,0.428-0.071,0.856-0.099,1.286
	c-0.017,0.268-0.034,0.535-0.055,0.802c-0.105,1.349-0.091,2.733-0.078,4.071l0.007,0.8c0.025,3.821,0.576,7.76,1.636,11.707
	l0.088,0.349c0.052,0.214,0.104,0.428,0.175,0.636c0.18,0.531,0.078,1.03-0.31,1.529l-0.21,0.271L58.019,105.909z"/>
<path d="M75.024,111.632c-0.252,0-0.512-0.114-0.731-0.321c-0.125-0.117-0.243-0.244-0.36-0.372l-0.112-0.121
	c-3.146-3.369-5.229-7.421-6.189-12.044c-0.242-1.163-0.371-2.337-0.456-3.229l-0.068-0.661c-0.032-0.296-0.063-0.593-0.089-0.891
	c-0.028-0.322-0.053-0.626-0.022-0.941c0.073-0.744,0.157-1.489,0.241-2.233l0.146-1.296c0.035-0.296,0.07-0.592,0.089-0.89
	c0.055-0.793,0.554-1.105,0.963-1.229l0.211-0.063l0.189,0.113c0.293,0.176,0.628,0.517,0.561,1.146
	c-0.027,0.249-0.128,1.052-0.128,1.052l-0.014,0.104c-0.007,0.052-0.016,0.105-0.018,0.158l-0.044,0.871
	c-0.074,1.429-0.15,2.905-0.099,4.351c0.047,1.319,0.259,2.674,0.649,4.142c0.903,3.404,2.412,6.472,4.484,9.115
	c0.247,0.315,0.519,0.612,0.79,0.909l0.383,0.424c0.098,0.104,0.147,0.158,0.191,0.216c0.065,0.085,0.143,0.19,0.197,0.325
	c0.189,0.459,0.032,1.021-0.351,1.253C75.316,111.592,75.173,111.632,75.024,111.632z"/>
<path d="M83.446,75.033c-0.524,0-0.913-0.368-0.99-0.938c-0.013-0.095-0.012-0.192-0.008-0.289l0.004-0.122
	c0.095-1.073,0.214-2.119,0.622-3.126c0.5-1.236,1.365-2.128,2.57-2.653c0.39-0.17,0.798-0.3,1.206-0.43l0.396-0.127
	c0.12-0.04,0.244-0.06,0.361-0.06h0.053l0.143,0.021l0.163,0.035c0.287,0.061,0.583,0.124,0.877,0.235
	c0.649,0.246,1.122,0.716,1.329,1.324c0.208,0.609,0.123,1.272-0.242,1.866c-0.432,0.705-1.014,1.293-1.729,1.75
	c-0.541,0.345-1.088,0.68-1.645,1c-0.647,0.374-1.304,0.733-1.959,1.092l-0.194,0.106c-0.174,0.095-0.377,0.201-0.607,0.265
	C83.676,75.016,83.559,75.033,83.446,75.033z M87.607,69.306c-0.09,0-0.182,0.009-0.276,0.026c-1.21,0.224-2.488,1.316-2.702,2.952
	c0.083-0.045,2.887-1.654,2.887-1.654c0.325-0.187,0.555-0.497,0.768-1.036c0.02-0.065,0.002-0.094-0.071-0.133
	C88.02,69.357,87.822,69.306,87.607,69.306z"/>
<path d="M124.394,67.894c-0.255,0-0.518-0.046-0.781-0.136c-0.439-0.15-0.881-0.349-1.313-0.59c-0.57-0.318-1.128-0.664-1.658-1.028
	c-0.764-0.524-1.513-1.072-2.262-1.62l-0.113-0.083c-0.177-0.13-0.352-0.3-0.519-0.506c-0.276-0.342-0.258-0.802,0.044-1.12
	c0.146-0.153,0.324-0.326,0.552-0.446c1.051-0.546,2.028-0.811,2.989-0.811c0.851,0.012,1.528,0.115,2.149,0.314
	c1.393,0.449,2.4,1.416,2.998,2.873c0.366,0.899,0.22,1.727-0.425,2.394C125.575,67.632,125.001,67.894,124.394,67.894z
	 M122.534,65.048c0.271,0.187,0.541,0.375,0.818,0.553c0.31,0.198,0.61,0.294,0.918,0.294c0.047,0,0.095-0.002,0.143-0.007
	c0.11-0.011,0.195-0.055,0.245-0.128c0.051-0.074,0.062-0.175,0.031-0.284c-0.021-0.076-0.052-0.144-0.082-0.212
	c-0.29-0.65-0.752-1.113-1.414-1.417c-0.47-0.216-0.954-0.321-1.479-0.321c-0.305,0-0.624,0.037-0.951,0.109
	c-0.072,0.016-0.142,0.032-0.209,0.05C121.13,64.084,122.534,65.048,122.534,65.048z"/>
<path d="M93.065,133.72c-0.449-0.012-0.897-0.037-1.341-0.087c-1.131-0.131-2.279-0.407-3.414-0.82
	c-0.412-0.149-0.703-0.412-0.867-0.779l-0.035-0.077l-0.026-0.184l-0.018-0.22l0.145-0.215c0.267-0.286,0.613-0.438,1.001-0.438
	c0.107,0,0.218,0.012,0.331,0.034c0.176,0.035,0.349,0.095,0.52,0.155c1.197,0.425,2.378,0.641,3.536,0.65l0.122,0.001
	c0.141,0,0.282,0.001,0.421,0.014c0.208,0.021,0.375,0.057,0.524,0.115c0.396,0.152,0.667,0.593,0.598,0.981
	c-0.075,0.412-0.352,0.705-0.742,0.784c-0.206,0.042-0.451,0.084-0.704,0.084h-0.051C93.065,133.718,93.065,133.72,93.065,133.72z"
	/>
<path d="M70.052,82.166c-0.284,0-0.545-0.145-0.737-0.408c-0.225-0.308-0.279-0.661-0.156-1.02c0.148-0.432,0.823-2.459,0.823-2.459
	c0.055-0.163,0.138-0.324,0.245-0.478c0.194-0.281,0.491-0.451,0.833-0.477c0.005,0,0.009,0,0.014,0
	c0.384,0,0.574,0.127,0.681,0.234c0.167,0.167,0.251,0.398,0.25,0.686c-0.008,0.115-0.016,0.206-0.048,0.308l-0.109,0.333
	c-0.279,0.855-0.559,1.711-0.848,2.563c-0.077,0.227-0.243,0.396-0.369,0.498C70.455,82.09,70.254,82.166,70.052,82.166z"/>
<path d="M82.09,112.594c-0.321,0-0.609-0.161-0.788-0.441c-0.099-0.154-0.188-0.316-0.27-0.48c-0.165-0.327-0.326-0.66-0.485-0.992
	c-0.063-0.133-0.121-0.268-0.16-0.407c-0.104-0.371,0.067-0.789,0.408-0.991c0.139-0.083,0.296-0.128,0.454-0.128
	c0.181,0,0.359,0.059,0.514,0.17c0.167,0.122,0.275,0.275,0.336,0.383c0.272,0.479,0.538,0.963,0.801,1.446
	c0.044,0.083,0.075,0.17,0.097,0.236l0.027,0.085l0.011,0.131c-0.014,0.393-0.323,0.887-0.744,0.97
	C82.223,112.587,82.155,112.594,82.09,112.594z"/>
<path d="M82.536,111.587c-0.008,0.206-0.195,0.468-0.34,0.496c-0.199,0.039-0.363-0.029-0.473-0.2
	c-0.089-0.14-0.169-0.286-0.244-0.435c-0.164-0.327-0.324-0.656-0.482-0.985c-0.05-0.105-0.097-0.212-0.129-0.323
	c-0.044-0.158,0.039-0.344,0.181-0.429c0.143-0.085,0.292-0.075,0.422,0.019c0.078,0.056,0.145,0.139,0.193,0.223
	c0.27,0.477,0.534,0.958,0.797,1.439C82.499,111.463,82.52,111.544,82.536,111.587z"/>
</svg>
